<svg width="337" height="337" viewBox="0 0 337 337" fill="none" xmlns="http://www.w3.org/2000/svg">
<path fill-rule="evenodd" clip-rule="evenodd" d="M169.417 57.0833C107.377 57.0833 57.0833 107.377 57.0833 169.417C57.0833 231.457 107.377 281.75 169.417 281.75C231.457 281.75 281.75 231.457 281.75 169.417C281.75 107.377 231.457 57.0833 169.417 57.0833ZM29 169.417C29 91.8667 91.8667 29 169.417 29C246.967 29 309.833 91.8667 309.833 169.417C309.833 246.967 246.967 309.833 169.417 309.833C91.8667 309.833 29 246.967 29 169.417ZM169.417 110.442C153.301 110.442 141.333 122.409 141.333 138.525C141.333 146.28 135.047 152.567 127.292 152.567C119.537 152.567 113.25 146.28 113.25 138.525C113.25 106.899 137.791 82.3584 169.417 82.3584C201.042 82.3584 225.583 106.899 225.583 138.525C225.583 165.281 208.018 186.966 183.458 193.01V193.288C183.458 201.043 177.172 207.329 169.417 207.329C161.662 207.329 155.375 201.043 155.375 193.288V180.65C155.375 172.895 161.662 166.608 169.417 166.608C185.532 166.608 197.5 154.641 197.5 138.525C197.5 122.409 185.532 110.442 169.417 110.442ZM169.417 215.754C177.172 215.754 183.458 222.041 183.458 229.796V242.433C183.458 250.188 177.172 256.475 169.417 256.475C161.662 256.475 155.375 250.188 155.375 242.433V229.796C155.375 222.041 161.662 215.754 169.417 215.754Z" fill="#005A8D"/>
</svg>
