<svg width="69" height="69" viewBox="0 0 69 69" fill="none" xmlns="http://www.w3.org/2000/svg">
<path d="M63.825 14.95C62.3875 13.225 60.375 12.075 58.075 12.075H16.9625L16.3875 10.925C14.95 6.0375 10.6375 2.875 5.75 2.875C4.025 2.875 2.875 4.025 2.875 5.75C2.875 7.475 4.025 8.625 5.75 8.625C8.05 8.625 10.35 10.35 10.925 12.65L12.9375 19.2625L19.2625 39.675C20.7 44.85 25.3 48.3 30.7625 48.3H49.7375C55.4875 48.3 60.0875 44.275 61.525 38.8125L65.55 21.275C65.8375 19.2625 65.2625 16.9625 63.825 14.95Z" fill="#263238"/>
<path d="M28.4625 66.125C32.5909 66.125 35.9375 62.7784 35.9375 58.65C35.9375 54.5217 32.5909 51.175 28.4625 51.175C24.3342 51.175 20.9875 54.5217 20.9875 58.65C20.9875 62.7784 24.3342 66.125 28.4625 66.125Z" fill="#263238"/>
<path d="M51.1749 66.125C55.3033 66.125 58.6499 62.7784 58.6499 58.65C58.6499 54.5217 55.3033 51.175 51.1749 51.175C47.0466 51.175 43.7 54.5217 43.7 58.65C43.7 62.7784 47.0466 66.125 51.1749 66.125Z" fill="#263238"/>
</svg>
