<svg width="972" height="635" viewBox="0 0 972 635" fill="none" xmlns="http://www.w3.org/2000/svg">
<path d="M92.9487 453.048C92.9487 442.565 84.8552 433.865 74.3881 433.278C50.8641 431.959 13.3379 430.478 13.3379 434.448V360.906C13.3379 353.405 17.5344 346.536 24.2075 343.111L64.39 322.494C71.0631 319.07 75.2596 312.2 75.2596 304.699V302.088C75.2596 292.2 83.2757 284.184 93.164 284.184V284.184C100.939 284.184 107.997 279.155 112.402 272.748C126.617 252.073 170.301 210.545 292.069 209.995C293.661 209.988 295.301 210.18 296.848 210.556L476.819 254.31L634.22 312.055C640.818 314.475 645.661 320.181 646.978 327.084L675.704 477.694C678.055 490.02 668.606 501.441 656.058 501.441H112.949C101.903 501.441 92.9487 492.487 92.9487 481.441V453.048Z" fill="#263238"/>
<path d="M303.437 289.641H78.3601V389.205H303.437V289.641Z" fill="#263238"/>
<path d="M108.828 288.349C93.6221 288.875 81.2179 300.7 79.9664 315.864L73.8938 389.44V311.614C73.8938 295.045 87.3253 281.614 103.894 281.614H303.54L108.828 288.349Z" fill="#263238"/>
<path d="M521.883 331.708V254.492C521.883 249.415 523.741 244.545 527.047 240.955C530.354 237.365 534.839 235.348 539.515 235.348C544.191 235.348 548.676 237.365 551.983 240.955C555.289 244.545 557.147 249.415 557.147 254.492V331.708" fill="#263238"/>
<path d="M321.681 493.478C327.014 473.409 328.514 452.369 326.09 431.648C323.665 410.926 317.368 390.961 307.583 372.977C297.798 354.993 284.733 339.369 269.189 327.063C253.644 314.757 235.948 306.03 217.186 301.415C198.424 296.8 178.991 296.396 160.08 300.227C141.169 304.058 123.178 312.043 107.211 323.694C91.2434 335.344 77.6366 350.413 67.2248 367.977C56.813 385.541 49.8157 405.23 46.6621 425.835C67.8009 426.43 91.1926 428.132 91.1926 428.132V493.478H321.681Z" fill="#263238"/>
<path d="M648.556 473.358L628.799 366.287C611.333 335.71 584.707 313.25 553.788 303.009C522.868 292.768 489.718 295.43 460.392 310.51C431.067 325.589 407.525 352.079 394.066 385.14C380.607 418.201 378.13 455.627 387.088 490.579H645.111C646.557 484.92 647.707 479.17 648.556 473.358V473.358Z" fill="#263238"/>
<path d="M653.3 450.978C653.278 430.572 649.195 410.411 641.331 391.876C633.467 373.342 622.008 356.871 607.737 343.591C593.466 330.312 576.721 320.537 558.649 314.936C540.576 309.335 521.602 308.04 503.025 311.14C484.449 314.24 466.709 321.662 451.019 332.897C435.329 344.132 422.061 358.915 412.121 376.235C402.182 393.555 395.807 413.002 393.432 433.245C391.057 453.488 392.738 474.049 398.361 493.522H647.266C651.26 479.757 653.295 465.41 653.3 450.978Z" fill="#263238"/>
<path d="M310.476 493.479C315.868 474.987 317.706 455.49 315.875 436.196C314.045 416.901 308.585 398.221 299.833 381.311C291.082 364.402 279.225 349.623 264.999 337.892C250.773 326.161 234.479 317.727 217.128 313.112C199.777 308.498 181.738 307.801 164.128 311.065C146.519 314.329 129.715 321.485 114.757 332.089C99.7982 342.692 87.0047 356.518 77.1687 372.71C67.3326 388.901 60.6636 407.113 57.5747 426.218C75.2067 426.962 91.2126 428.132 91.2126 428.132V493.479H310.476Z" fill="#263238"/>
<path d="M919.13 566.44C919.13 566.44 955.509 546.491 955.89 541.224C956.27 535.958 934.196 521.731 932.099 519.557C930.003 517.384 863.879 492.491 837.457 489.083C811.035 485.676 748.678 317.862 719.38 326.113C690.081 334.365 685.918 389.418 685.918 389.418L672.949 505.476L721 532.448C721 532.448 796.553 585.084 831.712 584.272C866.871 583.46 919.13 566.44 919.13 566.44Z" fill="#263238"/>
<path d="M168.186 578.586C223.134 578.586 267.678 530.222 267.678 470.56C267.678 410.899 223.134 362.534 168.186 362.534C113.238 362.534 68.6943 410.899 68.6943 470.56C68.6943 530.222 113.238 578.586 168.186 578.586Z" fill="#263238"/>
<path d="M185.994 524.302C223.29 524.302 253.524 491.474 253.524 450.979C253.524 410.483 223.29 377.656 185.994 377.656C148.698 377.656 118.463 410.483 118.463 450.979C118.463 491.474 148.698 524.302 185.994 524.302Z" fill="#263238"/>
<path d="M185.994 505.242C213.596 505.242 235.971 480.947 235.971 450.978C235.971 421.009 213.596 396.714 185.994 396.714C158.393 396.714 136.018 421.009 136.018 450.978C136.018 480.947 158.393 505.242 185.994 505.242Z" fill="#263238"/>
<path d="M185.994 493.479C207.612 493.479 225.137 474.451 225.137 450.978C225.137 427.506 207.612 408.478 185.994 408.478C164.376 408.478 146.851 427.506 146.851 450.978C146.851 474.451 164.376 493.479 185.994 493.479Z" fill="#263238"/>
<path d="M500.323 588.333C557.75 588.333 604.303 537.786 604.303 475.434C604.303 413.081 557.75 362.534 500.323 362.534C442.897 362.534 396.343 413.081 396.343 475.434C396.343 537.786 442.897 588.333 500.323 588.333Z" fill="#263238"/>
<path d="M522.843 524.302C560.139 524.302 590.373 491.474 590.373 450.979C590.373 410.483 560.139 377.656 522.843 377.656C485.547 377.656 455.312 410.483 455.312 450.979C455.312 491.474 485.547 524.302 522.843 524.302Z" fill="#263238"/>
<path d="M522.843 505.242C550.444 505.242 572.82 480.947 572.82 450.978C572.82 421.009 550.444 396.714 522.843 396.714C495.241 396.714 472.866 421.009 472.866 450.978C472.866 480.947 495.241 505.242 522.843 505.242Z" fill="#263238"/>
<path d="M522.843 493.479C544.461 493.479 561.986 474.451 561.986 450.978C561.986 427.506 544.461 408.478 522.843 408.478C501.225 408.478 483.7 427.506 483.7 450.978C483.7 474.451 501.225 493.479 522.843 493.479Z" fill="#263238"/>
<path d="M244.975 36.645C190.743 45.3604 153.692 96.186 161.989 150.483L185.463 304.105C192.924 352.934 234.92 389 284.316 389H324.679C353.367 389 380.673 376.679 399.655 355.17L447.977 300.418C464.102 282.147 473 258.617 473 234.248V117.354C473 55.7947 417.912 8.85295 357.133 18.6205L244.975 36.645Z" fill="#263238"/>
<path d="M460.092 139.455V112.823C435.643 108.851 411.541 102.675 388.036 94.3596L376.105 96.4868C403.259 112.887 430.784 128.82 460.092 139.455Z" fill="#263238"/>
<path d="M597.882 284.654L588.957 296.044L824.613 513.73L833.538 502.34L597.882 284.654Z" fill="#263238"/>
<path d="M826.073 524.28C835.767 524.28 843.626 515.746 843.626 505.22C843.626 494.694 835.767 486.161 826.073 486.161C816.378 486.161 808.519 494.694 808.519 505.22C808.519 515.746 816.378 524.28 826.073 524.28Z" fill="#263238"/>
<path d="M826.073 517.962C832.554 517.962 837.808 512.257 837.808 505.22C837.808 498.183 832.554 492.479 826.073 492.479C819.592 492.479 814.338 498.183 814.338 505.22C814.338 512.257 819.592 517.962 826.073 517.962Z" fill="#263238"/>
<rect width="42.6744" height="264.071" rx="21.3372" transform="matrix(0.58903 -0.808111 0.758443 0.651739 496.84 233)" fill="#263238"/>
</svg>
