<svg width="24" height="24" viewBox="0 0 24 24" fill="none" xmlns="http://www.w3.org/2000/svg">
<path d="M21.1592 17.102L17.7962 13.7347C18.3057 12.6122 18.6115 11.4898 18.6115 10.2653C18.6115 8.02041 17.7962 5.97959 16.1656 4.44898C12.9045 1.18367 7.70701 1.18367 4.44586 4.44898C1.18471 7.71429 1.18471 12.9184 4.44586 16.1837C5.97452 17.7143 8.11465 18.6327 10.2548 18.6327C11.4777 18.6327 12.7006 18.3265 13.7197 17.8163L17.0828 21.1837C17.5924 21.6939 18.4076 22 19.121 22C19.8344 22 20.5478 21.6939 21.1592 21.1837C22.2803 19.9592 22.2803 18.1224 21.1592 17.102ZM5.87261 14.551C3.42675 12.102 3.42675 8.12245 5.87261 5.77551C7.09554 4.55102 8.6242 3.93878 10.2548 3.93878C11.8854 3.93878 13.414 4.55102 14.6369 5.77551C15.8599 7 16.4713 8.53061 16.4713 10.1633C16.4713 11.7959 15.8599 13.4286 14.6369 14.551C13.414 15.6735 11.8854 16.3878 10.2548 16.3878C8.6242 16.3878 6.99363 15.7755 5.87261 14.551Z" fill="#4C4C4C"/>
</svg>
