<svg width="109" height="84" viewBox="0 0 109 84" fill="none" xmlns="http://www.w3.org/2000/svg">
<g clip-path="url(#clip0_224_23)">
<path d="M26.1382 26.2259L18.3797 45.9677L10.1902 58.5307V67.9529L16.6556 74.6831H38.6379H84.7577H97.6885L100.275 69.299L98.9816 55.3899L92.0852 50.0058C90.9358 45.519 88.4646 36.1865 87.7749 34.7508C87.0853 33.315 79.1544 22.1878 75.2752 16.8037L45.9654 12.3169L26.1382 26.2259Z" fill="#263238" stroke="#263238" stroke-width="0.5"/>
<path d="M95.9436 49.4963V48.625C95.9487 43.1414 94.8383 37.7124 92.6779 32.6595C90.5176 27.6066 87.3513 23.0324 83.3665 19.2075C78.7144 14.7435 73.0481 11.4402 66.8394 9.57252H66.5796C62.2266 8.22019 57.6823 7.56273 53.1189 7.62502C42.2484 8.21339 32.0171 12.8769 24.5196 20.661C17.0221 28.445 12.8254 38.7607 12.7887 49.4963C9.31528 50.7012 6.38635 53.0794 4.52069 56.2098C2.65504 59.3401 1.97306 63.0206 2.59555 66.5993C3.21803 70.178 5.10481 73.424 7.9217 75.7623C10.7386 78.1006 14.3038 79.3804 17.9859 79.375H90.7465C94.4286 79.3804 97.9938 78.1006 100.811 75.7623C103.628 73.424 105.514 70.178 106.137 66.5993C106.759 63.0206 106.077 59.3401 104.212 56.2098C102.346 53.0794 99.4171 50.7012 95.9436 49.4963V49.4963ZM90.7465 69.125H17.9859C16.6075 69.125 15.2856 68.5851 14.3109 67.6239C13.3363 66.6628 12.7887 65.3592 12.7887 64C12.7887 62.6408 13.3363 61.3372 14.3109 60.3761C15.2856 59.415 16.6075 58.875 17.9859 58.875H28.3803C29.7586 58.875 31.0806 58.3351 32.0552 57.3739C33.0299 56.4128 33.5775 55.1092 33.5775 53.75C33.5775 52.3908 33.0299 51.0872 32.0552 50.1261C31.0806 49.165 29.7586 48.625 28.3803 48.625H23.1831C23.4201 43.3094 24.9629 38.1301 27.6789 33.5325C30.3948 28.9349 34.2025 25.0567 38.7746 22.2313V38.375C38.7746 39.7343 39.3222 41.0378 40.2969 41.9989C41.2715 42.9601 42.5934 43.5 43.9718 43.5C45.3502 43.5 46.6721 42.9601 47.6468 41.9989C48.6214 41.0378 49.169 39.7343 49.169 38.375V18.3363C50.5797 18.1039 52.0025 17.9499 53.4307 17.875H54.3662C56.1107 17.8908 57.8502 18.0623 59.5634 18.3875V38.375C59.5634 39.7343 60.1109 41.0378 61.0856 41.9989C62.0602 42.9601 63.3822 43.5 64.7605 43.5C66.1389 43.5 67.4608 42.9601 68.4355 41.9989C69.4102 41.0378 69.9577 39.7343 69.9577 38.375V22.0775C72.1623 23.3363 74.2191 24.8317 76.0904 26.5363C79.0869 29.4057 81.4682 32.8396 83.0931 36.634C84.7179 40.4285 85.5532 44.5061 85.5493 48.625H80.3521C78.9737 48.625 77.6518 49.165 76.6771 50.1261C75.7025 51.0872 75.1549 52.3908 75.1549 53.75C75.1549 55.1092 75.7025 56.4128 76.6771 57.3739C77.6518 58.3351 78.9737 58.875 80.3521 58.875H90.7465C92.1248 58.875 93.4468 59.415 94.4214 60.3761C95.3961 61.3372 95.9436 62.6408 95.9436 64C95.9436 65.3592 95.3961 66.6628 94.4214 67.6239C93.4468 68.5851 92.1248 69.125 90.7465 69.125Z" fill="#263238"/>
<path d="M33 12.4819L39.9744 9.49398L46.5128 8L50 39H38.6667L33 12.4819Z" fill="white"/>
<path d="M75 12.1085L70.6098 10.241L65.7805 9.12051L62.2683 8.37352L59.1951 8.00003L57 8L57.878 39H69.2927L75 12.1085Z" fill="white"/>
</g>
<defs>
<clipPath id="clip0_224_23">
<rect width="109" height="84" fill="white"/>
</clipPath>
</defs>
</svg>
