<?xml version="1.0" standalone="no"?>
<!DOCTYPE svg PUBLIC "-//W3C//DTD SVG 20010904//EN"
 "http://www.w3.org/TR/2001/REC-SVG-20010904/DTD/svg10.dtd">
<svg version="1.0" xmlns="http://www.w3.org/2000/svg"
 width="693.000000pt" height="416.000000pt" viewBox="0 0 693.000000 416.000000"
 preserveAspectRatio="xMidYMid meet">
<metadata>
Created by potrace 1.16, written by Peter Selinger 2001-2019
</metadata>
<g transform="translate(0.000000,416.000000) scale(0.100000,-0.100000)"
fill="#000000" stroke="none">
<path d="M1963 4039 c-128 -27 -353 -113 -353 -135 0 -4 14 -30 30 -60 l31
-53 -78 -52 c-43 -29 -111 -85 -152 -126 -40 -40 -75 -73 -78 -73 -3 0 -24 16
-47 35 -24 19 -48 35 -54 35 -13 0 -110 -145 -150 -225 -38 -78 -84 -205 -78
-220 2 -6 29 -17 60 -25 31 -7 56 -16 56 -19 0 -3 -7 -41 -15 -84 -8 -43 -15
-132 -15 -197 l0 -118 -60 -4 c-33 -2 -63 -7 -66 -11 -10 -10 24 -183 53 -267
31 -91 79 -196 93 -205 6 -4 36 6 67 22 38 19 57 24 60 16 12 -33 112 -161
174 -223 l71 -70 -36 -47 c-20 -25 -36 -50 -36 -54 0 -15 107 -87 202 -138 99
-52 220 -96 242 -88 7 3 16 18 19 34 3 15 10 40 16 54 l10 27 68 -15 c37 -8
124 -16 193 -16 70 -1 128 -6 132 -12 4 -5 8 -26 8 -45 1 -78 1 -79 95 -64
102 17 135 29 135 50 0 13 -6 15 -27 9 -16 -4 -58 -13 -94 -20 l-67 -12 -6 36
c-3 20 -6 48 -6 62 l0 27 -157 4 c-98 3 -184 12 -227 22 -79 20 -78 20 -98
-56 -6 -27 -15 -48 -20 -48 -5 0 -47 16 -95 35 -86 35 -192 94 -246 137 l-28
23 35 47 c20 26 36 49 36 52 0 2 -42 46 -93 98 -51 51 -115 128 -142 171 -27
42 -53 77 -59 77 -6 0 -29 -12 -51 -25 -22 -14 -45 -25 -51 -25 -25 0 -112
237 -128 351 l-7 46 38 7 c21 3 49 6 63 6 l25 0 1 142 c0 109 5 164 21 230
l21 87 -53 16 c-29 8 -58 15 -64 15 -12 0 16 85 60 177 27 57 52 97 121 197 3
5 29 -9 58 -32 l51 -41 32 37 c58 67 158 156 231 204 39 27 75 49 80 51 4 1
-6 26 -23 55 -17 29 -31 54 -31 56 0 28 320 136 400 136 5 0 10 -19 10 -42 0
-87 -6 -83 148 -84 100 -1 161 -7 225 -22 64 -14 90 -17 93 -9 2 7 10 32 17
57 7 26 20 46 29 48 40 8 341 -149 355 -184 3 -8 -12 -35 -33 -60 l-37 -47 52
-44 52 -45 -37 -67 c-20 -36 -49 -82 -64 -101 -35 -46 -42 -67 -29 -92 9 -17
18 -20 54 -16 38 5 45 2 67 -26 13 -17 36 -57 50 -88 l26 -56 39 5 c32 4 45 0
72 -23 28 -23 33 -25 28 -8 -17 53 -38 158 -33 169 2 7 39 14 98 18 131 9 265
34 392 73 112 34 146 54 146 86 0 21 -51 55 -97 64 -26 5 -33 12 -41 45 -9 35
-8 42 9 52 21 13 25 47 9 76 -5 10 -53 48 -107 85 -54 37 -126 86 -159 110
-104 73 -166 68 -254 -22 -37 -38 -72 -90 -105 -154 l-50 -97 -32 31 -32 31
20 26 c10 14 28 38 40 53 l20 27 -60 44 c-75 56 -221 131 -313 163 -40 13 -75
24 -78 24 -4 0 -15 -28 -25 -61 -17 -61 -17 -61 -48 -56 -125 23 -164 27 -258
27 l-106 0 -7 38 c-3 20 -6 49 -6 65 0 33 -8 33 -137 6z m1387 -229 c37 0 53
-106 24 -162 -14 -27 -19 -29 -47 -24 -40 8 -79 46 -96 91 -11 32 -10 37 16
70 24 30 33 35 57 31 16 -4 36 -6 46 -6z"/>
<path d="M2135 3434 c-111 -17 -239 -77 -322 -149 -153 -134 -232 -373 -189
-575 25 -121 76 -212 170 -305 124 -124 248 -175 421 -175 107 0 182 18 284
67 143 68 263 221 306 388 19 75 19 212 0 294 -48 201 -225 383 -426 437 -58
15 -195 25 -244 18z m214 -49 c78 -19 180 -71 243 -125 65 -56 139 -171 169
-261 65 -198 3 -427 -155 -576 -179 -170 -416 -208 -633 -103 -255 124 -382
412 -298 678 64 204 223 347 440 395 46 10 174 6 234 -8z"/>
<path d="M3585 2727 c-2 -6 -9 -31 -15 -54 -6 -23 -23 -55 -39 -70 -15 -15
-31 -41 -35 -57 l-7 -29 -19 30 c-13 22 -30 33 -64 42 -75 19 -148 49 -211 86
-36 22 -65 33 -77 30 -17 -6 -20 -10 -22 -37 -1 -7 -37 -22 -81 -33 -44 -11
-110 -37 -146 -57 -58 -33 -74 -48 -117 -115 -61 -97 -82 -137 -121 -238 -32
-84 -71 -225 -71 -257 0 -11 -12 -44 -26 -75 -39 -82 -21 -161 43 -189 102
-44 287 -78 401 -72 40 1 72 1 72 -1 0 -2 -16 -53 -35 -114 -20 -60 -34 -112
-31 -114 2 -3 45 -15 94 -27 l89 -23 7 96 c3 53 6 166 6 252 l0 157 73 17
c114 28 232 72 369 137 l127 61 -14 26 c-7 14 -15 43 -16 64 -3 33 0 40 33 62
35 24 37 24 76 8 34 -13 41 -21 44 -46 l3 -30 55 43 c30 24 76 63 102 88 l47
45 18 -20 c10 -12 49 -49 88 -82 62 -54 73 -61 100 -55 16 3 36 11 43 16 29
24 5 479 -27 511 -7 7 -43 7 -113 0 -63 -7 -149 -7 -223 -3 -66 5 -171 9 -232
9 -62 1 -113 5 -113 10 0 14 -30 22 -35 8z"/>
<path d="M4044 2159 c-13 -21 -166 -129 -253 -178 -113 -64 -272 -132 -405
-173 l-103 -32 -7 -361 c-8 -392 -2 -488 40 -633 80 -275 278 -527 574 -731
63 -44 80 -51 122 -51 l48 0 0 313 0 314 -122 6 c-128 6 -224 22 -234 38 -3 6
-3 129 1 275 l8 264 297 0 c163 0 325 -3 359 -6 l61 -7 0 -268 0 -268 -37 -11
c-21 -6 -102 -14 -180 -17 l-143 -6 0 -313 0 -314 33 0 c63 0 264 147 412 301
153 159 258 342 306 533 22 88 37 371 38 737 l1 186 -112 37 c-212 70 -410
176 -585 313 l-83 64 0 -300 0 -301 23 0 c94 0 222 -103 251 -200 9 -30 16
-73 16 -97 l0 -44 -37 3 -38 3 -7 57 c-8 67 -25 103 -65 139 -34 32 -67 50
-110 59 l-32 8 -4 -82 -3 -81 -2 83 -2 84 -32 -7 c-54 -12 -74 -22 -113 -57
-46 -40 -74 -99 -75 -155 l0 -43 -41 0 -42 0 6 60 c15 137 120 248 252 267
l45 6 0 298 c0 277 -4 323 -26 288z"/>
<path d="M4014 1066 c-37 -31 -38 -84 -4 -121 21 -22 23 -33 21 -100 -2 -51 2
-82 11 -92 11 -14 14 -7 19 48 l6 64 1 -64 c2 -55 4 -62 17 -51 11 9 15 33 15
91 0 70 3 81 25 103 41 41 33 106 -16 131 -39 21 -64 19 -95 -9z"/>
<path d="M2945 1024 c3 -21 8 -51 11 -65 3 -14 -9 -109 -25 -210 -43 -266 -91
-655 -91 -741 0 -5 159 -8 354 -8 l354 0 8 58 8 57 9 -57 9 -58 100 0 99 0
-73 58 c-40 33 -114 101 -163 153 -221 229 -331 460 -370 770 l-6 46 -77 11
c-42 7 -94 15 -115 18 l-38 7 6 -39z"/>
</g>
</svg>
