<svg width="42" height="42" viewBox="0 0 42 42" fill="none" xmlns="http://www.w3.org/2000/svg">
<circle cx="21" cy="21" r="21" fill="white"/>
<path fill-rule="evenodd" clip-rule="evenodd" d="M12.5102 16.0811C11.3478 16.0811 10.4055 17.0234 10.4055 18.1857V23.8649C10.4055 26.5359 10.4055 27.8714 11.1961 28.7321C11.2535 28.7946 11.3136 28.8547 11.3761 28.9121C12.2368 29.7027 13.5723 29.7027 16.2434 29.7027H25.0001C27.6711 29.7027 29.0066 29.7027 29.8673 28.9121C29.9299 28.8547 29.9899 28.7946 30.0474 28.7321C30.838 27.8714 30.838 26.5359 30.838 23.8648V18.1857C30.838 17.0234 29.8957 16.0811 28.7333 16.0811C27.9361 16.0811 27.2073 15.6307 26.8508 14.9176L25.919 13.054C25.7219 12.6599 25.6234 12.4628 25.4964 12.3018C25.205 11.9324 24.7927 11.6776 24.3319 11.5821C24.1312 11.5405 23.9108 11.5405 23.4701 11.5405H17.7734C17.3326 11.5405 17.1123 11.5405 16.9116 11.5821C16.4508 11.6776 16.0385 11.9324 15.747 12.3018C15.6201 12.4628 15.5215 12.6599 15.3244 13.054L14.3926 14.9176C14.0361 15.6307 13.3074 16.0811 12.5102 16.0811ZM23.1623 21.7567C23.1623 23.1598 22.0248 24.2973 20.6217 24.2973C19.2186 24.2973 18.0812 23.1598 18.0812 21.7567C18.0812 20.3536 19.2186 19.2162 20.6217 19.2162C22.0248 19.2162 23.1623 20.3536 23.1623 21.7567ZM25.1623 21.7567C25.1623 24.2644 23.1294 26.2973 20.6217 26.2973C18.1141 26.2973 16.0812 24.2644 16.0812 21.7567C16.0812 19.2491 18.1141 17.2162 20.6217 17.2162C23.1294 17.2162 25.1623 19.2491 25.1623 21.7567Z" fill="#56CCF2"/>
</svg>
