<svg width="79" height="79" viewBox="0 0 79 79" fill="none" xmlns="http://www.w3.org/2000/svg">
<path d="M28.7407 69.125H17.834C13.4123 69.125 9.875 65.5789 9.875 61.1462V33.3681C9.875 29.822 11.6437 26.2759 14.8862 24.2073L35.2257 11.2048C37.8787 9.43173 41.1213 9.43173 43.7743 11.2048L64.1138 24.2073C67.0616 26.2759 69.125 29.5265 69.125 33.3681V61.1462C69.125 65.5789 65.5877 69.125 61.166 69.125H50.5541H28.7407Z" fill="#263238"/>
<path fill-rule="evenodd" clip-rule="evenodd" d="M41.9453 13.9416C40.3994 12.9084 38.6007 12.9084 37.0548 13.9416L36.9987 13.9782L16.6592 26.9807C14.4117 28.4145 13.1667 30.8888 13.1667 33.3682V61.1462C13.1667 63.7687 15.238 65.8334 17.834 65.8334H61.1661C63.7621 65.8334 65.8334 63.7687 65.8334 61.1462V33.3682C65.8334 30.8041 64.477 28.5053 62.2769 26.9398L42.0013 13.9782L41.9453 13.9416ZM45.5732 8.44806C41.8283 5.96183 37.1719 5.96181 33.4269 8.448L13.1159 21.4323C13.1164 21.432 13.1154 21.4326 13.1159 21.4323C8.87925 24.1358 6.58337 28.7558 6.58337 33.3682V61.1462C6.58337 67.3891 11.5867 72.4167 17.834 72.4167H61.1661C67.4134 72.4167 72.4167 67.3891 72.4167 61.1462V33.3682C72.4167 28.2699 69.6684 24.0839 66.0046 21.5129C65.9659 21.4857 65.9266 21.4594 65.8868 21.4339L45.5732 8.44806Z" fill="#263238"/>
<path d="M33.9165 72.4166H25.6874C23.3187 72.4166 24.1651 73.0951 24.1651 70.6626V55.6666C24.1651 54.0098 25.5082 52.6666 27.1651 52.6666H52.9054C54.5623 52.6666 55.9054 54.0098 55.9054 55.6666V70.6626C55.9054 71.9493 56.5682 72.3655 56.842 72.4722C57.0167 72.5025 56.9758 72.5243 56.842 72.4722C56.6983 72.4473 56.4089 72.4166 55.9054 72.4166H45.4374H33.9165Z" fill="white"/>
</svg>
