<svg width="201" height="201" viewBox="0 0 201 201" fill="none" xmlns="http://www.w3.org/2000/svg">
<circle cx="100.5" cy="100.5" r="100.5" fill="#00AEEF" fill-opacity="0.2"/>
<path d="M65 95C63.8133 95 62.6533 95.3519 61.6666 96.0112C60.6799 96.6705 59.9108 97.6075 59.4567 98.7039C59.0026 99.8003 58.8838 101.007 59.1153 102.171C59.3468 103.334 59.9182 104.404 60.7574 105.243C61.5965 106.082 62.6656 106.653 63.8295 106.885C64.9933 107.116 66.1997 106.997 67.2961 106.543C68.3925 106.089 69.3295 105.32 69.9888 104.333C70.6481 103.347 71 102.187 71 101C71 99.4087 70.3679 97.8826 69.2426 96.7574C68.1174 95.6321 66.5913 95 65 95ZM137 95C135.813 95 134.653 95.3519 133.667 96.0112C132.68 96.6705 131.911 97.6075 131.457 98.7039C131.003 99.8003 130.884 101.007 131.115 102.171C131.347 103.334 131.918 104.404 132.757 105.243C133.596 106.082 134.666 106.653 135.829 106.885C136.993 107.116 138.2 106.997 139.296 106.543C140.392 106.089 141.33 105.32 141.989 104.333C142.648 103.347 143 102.187 143 101C143 99.4087 142.368 97.8826 141.243 96.7574C140.117 95.6321 138.591 95 137 95ZM149 59H53C48.2261 59 43.6477 60.8964 40.2721 64.2721C36.8964 67.6477 35 72.2261 35 77V125C35 129.774 36.8964 134.352 40.2721 137.728C43.6477 141.104 48.2261 143 53 143H149C153.774 143 158.352 141.104 161.728 137.728C165.104 134.352 167 129.774 167 125V77C167 72.2261 165.104 67.6477 161.728 64.2721C158.352 60.8964 153.774 59 149 59ZM155 125C155 126.591 154.368 128.117 153.243 129.243C152.117 130.368 150.591 131 149 131H53C51.4087 131 49.8826 130.368 48.7574 129.243C47.6321 128.117 47 126.591 47 125V77C47 75.4087 47.6321 73.8826 48.7574 72.7574C49.8826 71.6321 51.4087 71 53 71H149C150.591 71 152.117 71.6321 153.243 72.7574C154.368 73.8826 155 75.4087 155 77V125ZM101 83C97.4399 83 93.9598 84.0557 90.9997 86.0335C88.0396 88.0114 85.7325 90.8226 84.3702 94.1117C83.0078 97.4008 82.6513 101.02 83.3459 104.512C84.0404 108.003 85.7547 111.211 88.2721 113.728C90.7894 116.245 93.9967 117.96 97.4884 118.654C100.98 119.349 104.599 118.992 107.888 117.63C111.177 116.267 113.989 113.96 115.966 111C117.944 108.04 119 104.56 119 101C119 96.2261 117.104 91.6477 113.728 88.2721C110.352 84.8964 105.774 83 101 83ZM101 107C99.8133 107 98.6533 106.648 97.6666 105.989C96.6799 105.33 95.9108 104.392 95.4567 103.296C95.0026 102.2 94.8838 100.993 95.1153 99.8295C95.3468 98.6656 95.9182 97.5965 96.7574 96.7574C97.5965 95.9182 98.6656 95.3468 99.8295 95.1153C100.993 94.8838 102.2 95.0026 103.296 95.4567C104.392 95.9108 105.33 96.6799 105.989 97.6666C106.648 98.6533 107 99.8133 107 101C107 102.591 106.368 104.117 105.243 105.243C104.117 106.368 102.591 107 101 107Z" fill="#797979"/>
</svg>
