<?xml version="1.0" standalone="no"?>
<!DOCTYPE svg PUBLIC "-//W3C//DTD SVG 20010904//EN"
 "http://www.w3.org/TR/2001/REC-SVG-20010904/DTD/svg10.dtd">
<svg version="1.0" xmlns="http://www.w3.org/2000/svg"
 width="1280.000000pt" height="1024.000000pt" viewBox="0 0 1280.000000 1024.000000"
 preserveAspectRatio="xMidYMid meet">
<metadata>
Created by potrace 1.16, written by Peter Selinger 2001-2019
</metadata>
<g transform="translate(0.000000,1024.000000) scale(0.100000,-0.100000)"
fill="#000000" stroke="none">
<path d="M3420 8034 c-346 -18 -481 -27 -515 -35 -30 -8 -57 -28 -111 -84 -59
-61 -91 -84 -195 -139 -68 -36 -121 -66 -116 -66 4 0 65 29 135 64 110 55 135
72 177 122 28 33 66 64 90 75 53 23 345 42 685 43 295 1 294 2 374 -102 35
-46 65 -69 147 -116 67 -39 112 -71 126 -92 21 -32 21 -33 2 -39 -12 -4 -34 2
-56 15 -157 93 -422 137 -753 127 -333 -10 -622 -54 -860 -130 -58 -19 -123
-37 -145 -41 l-40 -6 28 21 c35 27 35 47 0 24 -83 -52 -109 -109 -80 -171 13
-26 32 -40 94 -69 43 -20 85 -40 93 -44 11 -6 16 -31 18 -100 l3 -91 -36 0
c-76 0 -130 -41 -160 -122 -34 -92 -3 -301 44 -290 6 1 10 -4 9 -10 -4 -18 79
-58 119 -58 17 0 34 -3 37 -8 5 -9 21 -590 21 -797 l0 -150 -98 -15 c-54 -8
-98 -19 -98 -23 0 -5 174 -214 388 -465 213 -251 398 -469 411 -486 26 -35 27
-30 8 61 -25 119 -77 443 -74 457 2 9 80 -23 247 -101 134 -62 246 -111 249
-109 2 3 35 144 73 313 38 169 71 318 74 331 5 21 3 22 -55 22 l-61 0 3 106 3
107 62 17 c93 25 185 75 248 132 30 27 55 54 55 60 0 5 -5 6 -12 2 -7 -4 -8
-3 -4 5 4 6 11 9 16 6 11 -7 42 43 34 57 -4 6 -3 8 4 4 11 -7 37 61 50 130 8
45 9 484 2 794 l-5 215 78 27 c157 54 230 116 213 181 -9 37 -124 130 -257
207 -92 54 -120 76 -162 128 -77 98 -99 106 -297 108 -91 0 -194 0 -230 -2z"/>
<path d="M7006 6856 c-44 -17 -83 -51 -132 -118 -27 -36 -65 -65 -164 -124
-71 -43 -128 -79 -126 -81 1 -2 61 31 132 72 108 63 137 85 179 138 28 34 71
73 95 86 43 24 47 24 284 23 316 -3 701 -25 746 -44 31 -13 115 -90 152 -140
7 -10 72 -45 143 -79 72 -34 133 -63 138 -66 4 -2 7 -2 7 1 0 3 -62 37 -137
75 -125 63 -143 75 -188 131 -72 89 -114 106 -295 120 -80 6 -291 13 -470 16
-268 4 -332 2 -364 -10z"/>
<path d="M10311 6641 c-46 -12 -78 -37 -132 -105 -33 -40 -75 -74 -141 -115
-52 -32 -104 -62 -116 -65 -20 -7 -51 -36 -38 -36 4 0 65 34 135 75 107 63
136 85 174 135 75 97 69 95 382 94 149 0 353 -6 454 -13 215 -14 234 -21 308
-106 40 -47 69 -67 167 -116 65 -33 120 -58 123 -56 2 3 -47 31 -109 62 -95
48 -123 68 -175 125 -36 39 -78 74 -100 83 -21 8 -87 18 -148 22 -60 4 -123 9
-140 10 -90 9 -615 13 -644 6z"/>
<path d="M7116 6619 c-190 -23 -413 -85 -444 -122 -6 -7 -13 -30 -17 -51 -8
-39 -8 -39 21 -33 185 40 444 67 640 67 361 0 835 -72 1155 -176 13 -5 18 6
26 53 l9 58 11 -35 c11 -34 11 -34 12 -7 2 65 -117 120 -389 181 -258 57 -805
92 -1024 65z"/>
<path d="M10410 6413 c-168 -18 -378 -75 -434 -118 -25 -19 -9 -19 24 0 60 34
61 18 9 -140 -42 -127 -35 -123 -112 -86 -36 17 -79 44 -96 60 -17 16 -31 25
-31 20 0 -19 54 -60 118 -90 54 -26 63 -34 59 -52 -3 -12 -17 -67 -31 -122
-50 -200 -77 -473 -56 -585 20 -108 115 -291 142 -274 7 5 8 2 3 -5 -4 -8 7
-28 33 -54 36 -38 74 -97 77 -122 1 -5 3 -12 4 -15 1 -3 4 -17 6 -31 5 -38 39
-100 72 -131 15 -15 54 -39 87 -54 49 -22 72 -27 147 -27 49 0 92 3 97 7 4 4
9 45 10 90 l4 83 -50 5 c-78 8 -158 52 -237 132 -79 81 -124 162 -156 283 -54
203 -25 863 44 1003 22 45 23 45 92 57 204 33 451 42 665 23 109 -10 116 -12
141 -40 42 -49 62 -130 54 -219 -14 -156 34 -345 121 -477 l46 -69 -22 -61
c-31 -89 -41 -177 -29 -259 19 -135 108 -273 191 -296 l38 -10 0 -98 0 -98 50
8 c53 8 142 45 188 77 16 11 52 21 88 25 110 9 205 70 262 166 24 41 27 57 27
138 1 85 3 95 27 120 14 16 31 39 39 53 16 32 16 148 0 180 -19 36 -62 81 -88
91 -19 7 -23 16 -23 56 0 62 -27 107 -73 122 -28 9 -38 21 -52 56 -9 25 -30
54 -46 66 -17 12 -29 29 -29 42 0 30 -52 136 -82 169 l-26 26 24 6 c25 7 104
77 104 93 0 5 -20 -10 -45 -34 -62 -59 -84 -62 -142 -24 -26 18 -58 34 -70 37
-21 6 -23 12 -23 81 l0 75 28 -7 c66 -16 113 -45 128 -77 l15 -33 -6 30 c-8
41 -41 68 -122 99 -214 81 -623 137 -973 134 -96 0 -191 -3 -210 -5z"/>
<path d="M7252 6008 c-70 -176 -132 -357 -132 -387 0 -42 17 -51 90 -50 l65 1
-65 12 c-60 10 -65 13 -64 36 1 14 36 124 78 244 82 234 99 321 28 144z"/>
<path d="M1417 5508 c-62 -53 -97 -106 -130 -193 -36 -98 -210 -643 -298 -932
-18 -60 -31 -103 -80 -260 -11 -38 -27 -88 -34 -113 -7 -25 -45 -148 -83 -275
-79 -257 -227 -767 -268 -920 -26 -100 -30 -211 -8 -246 4 -7 9 -20 9 -29 5
-46 344 -1073 356 -1078 5 -2 7 -7 4 -12 -5 -8 83 -269 96 -284 5 -5 32 0 64
12 31 12 58 22 59 22 1 0 31 -65 66 -144 35 -80 68 -142 72 -140 4 3 5 -3 1
-12 -5 -13 -3 -15 7 -9 8 5 11 4 6 -3 -7 -12 43 -132 56 -132 5 0 7 -4 4 -9
-9 -14 105 -251 117 -244 6 3 7 1 3 -5 -3 -6 10 -38 30 -71 l36 -61 -11 -144
c-6 -79 -11 -158 -11 -175 l0 -31 480 0 c313 0 480 -3 480 -10 0 -5 20 -10 45
-10 25 0 45 5 45 10 0 7 349 10 1026 10 l1026 0 -7 201 -7 201 93 95 c52 52
119 116 150 143 l56 49 61 -18 c35 -11 62 -15 64 -9 2 5 41 0 93 -13 100 -25
49 12 595 -433 146 -118 272 -216 280 -216 12 0 12 2 0 14 -53 49 -772 625
-787 630 -10 3 -396 103 -858 221 -462 119 -856 220 -875 225 l-35 9 67 468
c117 820 188 1424 188 1592 0 70 -32 235 -59 301 -16 41 -13 21 19 -104 20
-79 30 -143 30 -193 0 -78 -17 -289 -29 -358 l-7 -40 -33 80 c-77 182 -177
511 -161 529 5 7 5 18 1 25 -6 10 -10 9 -14 -4 -4 -9 -8 -615 -10 -1348 -2
-733 -2 -1250 0 -1149 2 100 6 182 10 182 31 0 648 -169 682 -187 31 -16 61
-23 100 -23 81 0 88 -9 42 -54 -37 -36 -43 -38 -193 -66 -131 -24 -419 -71
-683 -111 -147 -22 -331 -22 -478 0 -204 30 -320 53 -310 60 20 13 31 46 22
64 -19 33 -46 39 -97 23 -74 -24 -202 -37 -267 -26 -49 8 -72 21 -163 88 -122
90 -141 102 -174 102 -36 1 -105 36 -123 64 -22 34 -119 387 -108 396 4 4 29
15 55 24 26 10 50 22 53 26 8 12 -42 223 -104 448 -28 101 -51 196 -51 212 0
15 -4 30 -8 32 -9 3 -162 536 -162 563 0 20 68 216 79 228 4 4 21 -57 39 -135
43 -193 43 -195 56 -271 l8 -48 211 338 c116 186 216 354 223 373 22 60 16 98
-57 360 -85 308 -131 479 -350 1300 -93 349 -172 643 -177 652 -6 14 -14 11
-55 -24z m2071 -2441 c29 -89 69 -196 88 -237 l36 -75 -12 -100 c-40 -354
-187 -1395 -197 -1405 -3 -3 -3 18 0 45 4 28 9 474 13 993 4 518 10 942 13
942 3 0 30 -73 59 -163z"/>
<path d="M4515 5081 l0 -429 845 -387 845 -387 730 -163 c402 -90 1014 -227
1360 -305 l630 -141 135 6 c804 36 1237 70 1393 110 l27 7 -5 -108 c-6 -114
-25 -679 -25 -735 0 -23 3 -30 11 -22 10 10 45 880 36 889 -2 3 -23 -3 -46
-11 -24 -8 -95 -22 -159 -30 -120 -16 -434 -44 -440 -39 -8 6 33 179 69 288
47 145 127 310 208 433 l60 92 -57 -42 c-182 -134 -326 -265 -374 -338 -17
-27 -35 -46 -39 -43 -5 3 -9 0 -9 -5 0 -6 4 -11 8 -11 5 0 9 -6 9 -12 0 -7 26
-91 57 -186 32 -95 56 -175 54 -177 -6 -7 -479 -34 -714 -41 l-199 -7 -545
121 c-941 209 -1312 291 -1743 387 l-418 94 -407 182 c-224 100 -411 186 -416
190 -5 4 6 20 24 36 193 164 312 236 443 269 37 9 67 20 67 25 0 5 -6 9 -14 9
-32 0 -201 -62 -255 -94 -62 -36 -241 -174 -241 -185 0 -4 -13 -14 -28 -23
-28 -17 -30 -16 -173 48 -79 36 -190 86 -245 111 l-102 46 -7 96 c-11 154 -43
390 -64 473 -29 111 -75 217 -131 296 -45 65 -125 142 -146 142 -5 0 -9 -183
-9 -429z"/>
<path d="M11434 4600 c-5 -4 -142 -70 -304 -145 -162 -76 -337 -157 -387 -181
-84 -39 -94 -42 -102 -26 -5 9 -32 72 -61 140 l-53 124 -23 -29 c-13 -15 -23
-36 -24 -45 0 -9 -4 -19 -10 -23 -5 -3 -7 -12 -4 -19 3 -8 -17 -117 -44 -242
-58 -266 -65 -304 -57 -304 3 0 29 21 56 47 l51 48 -6 -45 c-13 -93 -37 -342
-34 -345 2 -1 129 96 283 217 154 121 399 312 545 426 146 113 271 211 279
218 11 10 8 19 -17 57 -17 24 -42 65 -55 90 -14 25 -28 42 -33 37z"/>
<path d="M8364 4520 c20 -87 38 -235 43 -361 7 -164 -6 -291 -43 -438 -13 -52
-22 -96 -20 -98 6 -6 43 110 62 192 23 104 33 260 23 389 -9 123 -44 315 -60
331 -7 7 -9 2 -5 -15z"/>
<path d="M11516 4305 c-62 -51 -157 -160 -214 -245 -81 -121 -163 -322 -177
-432 -4 -30 3 -16 23 47 78 245 186 425 357 598 42 42 75 77 72 77 -3 0 -30
-20 -61 -45z"/>
<path d="M11970 4231 c-129 -42 -271 -203 -380 -434 -47 -98 -141 -375 -290
-847 -39 -124 -73 -229 -75 -235 -3 -5 -3 67 0 160 7 257 41 456 117 693 42
131 131 345 175 420 13 24 23 46 20 49 -3 2 -26 -33 -51 -79 -188 -345 -274
-679 -281 -1090 -3 -131 -8 -216 -16 -229 -13 -25 -14 -98 -2 -109 4 -5 80
-17 168 -29 350 -46 531 -71 561 -76 l31 -5 -109 -363 c-59 -199 -108 -367
-108 -372 0 -12 580 -57 591 -46 4 3 26 445 49 981 48 1083 48 1090 -11 1263
-39 117 -80 189 -146 255 -75 76 -177 115 -243 93z"/>
<path d="M4981 4005 c-2 -95 149 -2860 163 -2955 20 -148 -26 767 -115 2275
-35 596 -46 751 -48 680z"/>
<path d="M6226 3300 c7 -177 58 -879 105 -1430 63 -746 164 -1821 173 -1845
11 -26 1 94 -64 826 -38 431 -101 1169 -139 1639 -79 958 -81 985 -75 810z"/>
<path d="M8885 1535 c0 -836 1 -1177 2 -757 2 420 2 1104 0 1520 -1 416 -2 73
-2 -763z"/>
<path d="M10430 1848 c-5 -32 -57 -1824 -54 -1827 3 -3 8 0 12 6 4 7 18 360
30 785 13 425 25 833 29 906 4 96 3 132 -6 132 -6 0 -11 -1 -11 -2z"/>
</g>
</svg>
