<svg fill="none" xmlns="http://www.w3.org/2000/svg" viewBox="586.85 1259.87 7405.3 6571.72">
<g clip-path="url(#clip0_46_253)">
<path d="M1643.16 7534.76L1644.6 7526.03H1645.45L1644.02 7534.76H1643.16ZM1639.19 7532.34L1639.33 7531.49H1645.84L1645.7 7532.34H1639.19ZM1640.1 7534.76L1641.53 7526.03H1642.38L1640.95 7534.76H1640.1ZM1639.7 7529.31L1639.84 7528.45H1646.35L1646.22 7529.31H1639.7ZM1654.64 7528.76H1653.58C1653.52 7528.46 1653.41 7528.19 1653.25 7527.96C1653.1 7527.73 1652.91 7527.54 1652.69 7527.38C1652.47 7527.22 1652.23 7527.1 1651.96 7527.02C1651.69 7526.94 1651.42 7526.9 1651.13 7526.9C1650.6 7526.9 1650.12 7527.04 1649.69 7527.3C1649.26 7527.57 1648.93 7527.96 1648.67 7528.48C1648.42 7529 1648.3 7529.64 1648.3 7530.4C1648.3 7531.15 1648.42 7531.79 1648.67 7532.31C1648.93 7532.83 1649.26 7533.22 1649.69 7533.49C1650.12 7533.76 1650.6 7533.89 1651.13 7533.89C1651.42 7533.89 1651.69 7533.85 1651.96 7533.77C1652.23 7533.69 1652.47 7533.58 1652.69 7533.42C1652.91 7533.26 1653.1 7533.07 1653.25 7532.84C1653.41 7532.6 1653.52 7532.34 1653.58 7532.03H1654.64C1654.56 7532.48 1654.41 7532.88 1654.2 7533.23C1653.99 7533.58 1653.73 7533.88 1653.42 7534.13C1653.11 7534.38 1652.76 7534.56 1652.37 7534.69C1651.98 7534.82 1651.57 7534.88 1651.13 7534.88C1650.38 7534.88 1649.72 7534.7 1649.14 7534.34C1648.56 7533.97 1648.11 7533.45 1647.77 7532.78C1647.44 7532.11 1647.27 7531.32 1647.27 7530.4C1647.27 7529.48 1647.44 7528.68 1647.77 7528.01C1648.11 7527.34 1648.56 7526.82 1649.14 7526.46C1649.72 7526.1 1650.38 7525.92 1651.13 7525.92C1651.57 7525.92 1651.98 7525.98 1652.37 7526.11C1652.76 7526.23 1653.11 7526.42 1653.42 7526.67C1653.73 7526.91 1653.99 7527.21 1654.2 7527.56C1654.41 7527.91 1654.56 7528.31 1654.64 7528.76ZM1655.99 7532.97V7532.1L1659.82 7526.03H1660.45V7527.38H1660.03L1657.13 7531.97V7532.03H1662.29V7532.97H1655.99ZM1660.1 7534.76V7532.71V7532.3V7526.03H1661.1V7534.76H1660.1ZM1671.07 7528.76H1670.01C1669.95 7528.46 1669.84 7528.19 1669.68 7527.96C1669.53 7527.73 1669.34 7527.54 1669.12 7527.38C1668.9 7527.22 1668.66 7527.1 1668.39 7527.02C1668.12 7526.94 1667.85 7526.9 1667.56 7526.9C1667.03 7526.9 1666.55 7527.04 1666.12 7527.3C1665.69 7527.57 1665.35 7527.96 1665.1 7528.48C1664.85 7529 1664.73 7529.64 1664.73 7530.4C1664.73 7531.15 1664.85 7531.79 1665.1 7532.31C1665.35 7532.83 1665.69 7533.22 1666.12 7533.49C1666.55 7533.76 1667.03 7533.89 1667.56 7533.89C1667.85 7533.89 1668.12 7533.85 1668.39 7533.77C1668.66 7533.69 1668.9 7533.58 1669.12 7533.42C1669.34 7533.26 1669.53 7533.07 1669.68 7532.84C1669.84 7532.6 1669.95 7532.34 1670.01 7532.03H1671.07C1670.99 7532.48 1670.84 7532.88 1670.63 7533.23C1670.42 7533.58 1670.16 7533.88 1669.85 7534.13C1669.54 7534.38 1669.19 7534.56 1668.8 7534.69C1668.41 7534.82 1668 7534.88 1667.56 7534.88C1666.81 7534.88 1666.15 7534.7 1665.57 7534.34C1664.99 7533.97 1664.54 7533.45 1664.2 7532.78C1663.87 7532.11 1663.7 7531.32 1663.7 7530.4C1663.7 7529.48 1663.87 7528.68 1664.2 7528.01C1664.54 7527.34 1664.99 7526.82 1665.57 7526.46C1666.15 7526.1 1666.81 7525.92 1667.56 7525.92C1668 7525.92 1668.41 7525.98 1668.8 7526.11C1669.19 7526.23 1669.54 7526.42 1669.85 7526.67C1670.16 7526.91 1670.42 7527.21 1670.63 7527.56C1670.84 7527.91 1670.99 7528.31 1671.07 7528.76ZM1672.42 7532.97V7532.1L1676.25 7526.03H1676.88V7527.38H1676.46L1673.56 7531.97V7532.03H1678.72V7532.97H1672.42ZM1676.53 7534.76V7532.71V7532.3V7526.03H1677.53V7534.76H1676.53ZM1687.5 7528.76H1686.44C1686.38 7528.46 1686.27 7528.19 1686.11 7527.96C1685.96 7527.73 1685.77 7527.54 1685.55 7527.38C1685.33 7527.22 1685.09 7527.1 1684.82 7527.02C1684.55 7526.94 1684.28 7526.9 1683.99 7526.9C1683.46 7526.9 1682.98 7527.04 1682.55 7527.3C1682.12 7527.57 1681.78 7527.96 1681.53 7528.48C1681.28 7529 1681.16 7529.64 1681.16 7530.4C1681.16 7531.15 1681.28 7531.79 1681.53 7532.31C1681.78 7532.83 1682.12 7533.22 1682.55 7533.49C1682.98 7533.76 1683.46 7533.89 1683.99 7533.89C1684.28 7533.89 1684.55 7533.85 1684.82 7533.77C1685.09 7533.69 1685.33 7533.58 1685.55 7533.42C1685.77 7533.26 1685.96 7533.07 1686.11 7532.84C1686.27 7532.6 1686.38 7532.34 1686.44 7532.03H1687.5C1687.42 7532.48 1687.27 7532.88 1687.06 7533.23C1686.85 7533.58 1686.59 7533.88 1686.28 7534.13C1685.97 7534.38 1685.62 7534.56 1685.23 7534.69C1684.84 7534.82 1684.43 7534.88 1683.99 7534.88C1683.24 7534.88 1682.58 7534.7 1682 7534.34C1681.42 7533.97 1680.96 7533.45 1680.63 7532.78C1680.3 7532.11 1680.13 7531.32 1680.13 7530.4C1680.13 7529.48 1680.3 7528.68 1680.63 7528.01C1680.96 7527.34 1681.42 7526.82 1682 7526.46C1682.58 7526.1 1683.24 7525.92 1683.99 7525.92C1684.43 7525.92 1684.84 7525.98 1685.23 7526.11C1685.62 7526.23 1685.97 7526.42 1686.28 7526.67C1686.59 7526.91 1686.85 7527.21 1687.06 7527.56C1687.27 7527.91 1687.42 7528.31 1687.5 7528.76ZM1688.85 7532.97V7532.1L1692.68 7526.03H1693.31V7527.38H1692.89L1689.99 7531.97V7532.03H1695.15V7532.97H1688.85ZM1692.96 7534.76V7532.71V7532.3V7526.03H1693.96V7534.76H1692.96Z" fill="black"/>
<g clip-path="url(#clip1_46_253)">
<path d="M5668.09 4016.34V4022.61L5534.02 5484.28V5487.96L5531.94 5510.47L5424.14 6680.09L4343.75 6623.28L3263.35 6680.09L3219.52 6200.54L3187.97 5856.98L3165.87 5614.86L3163.29 5587.81L3154.45 5490.55L3151.75 5460.42L3134.32 5271.67L3019.53 4017.45L3527.93 3730.33L3748.92 3605.52L3812.51 3569.62L3864.44 3540.23L3923.62 3506.78L3971.5 3479.73L4066.53 3426H4095.38H4295.13H4352.34H4620.97L4717.22 3480.47L4756.75 3502.72L4760.07 3504.57L4839.26 3549.33L4847.61 3554L5175.78 3739.43L5668.09 4016.34Z" fill="#038D00"/>
<path d="M4717.4 2811.9H3971.69V3775.69H4717.4V2811.9Z" fill="#FAAD3B"/>
<g style="mix-blend-mode:multiply" opacity="0.28">
<path d="M4859.37 3724.42C4852.5 3724.42 4845.75 3724.42 4838.99 3723.81C4796.43 3722.09 4755.75 3718.93 4716.96 3714.34C4632.6 3704.92 4549.44 3686.75 4468.83 3660.11C4393.53 3635.39 4321.6 3601.36 4254.72 3558.79C4195.97 3521.24 4142.33 3476.23 4095.12 3424.89C4003.53 3325.04 3973.08 3237.24 3971.36 3231.83L4118.69 3153.01L4394.44 3006.32L4439.12 2982.46H4717.45V3479.6L4756.98 3501.86L4760.3 3503.7L4839.48 3548.46L4847.83 3553.14L4859.37 3724.42Z" fill="#63451A"/>
</g>
<path d="M5112.76 3703.87L4839.47 4590.32L4828.42 4626.34L4365.69 5189.88L4344.58 5215.46L3971.72 4980.97L3864.91 4729.39L3633.6 4185.89L3749.38 3604.4L3812.97 3568.49L3864.91 3539.1L3924.08 3505.66C3924.08 3505.66 3939.43 3519.43 3967.05 3539.23C3968.53 3540.46 3970.24 3541.56 3971.96 3542.79C4057.9 3602.68 4248.2 3709.78 4469.56 3660.1C4560.85 3638.63 4645.83 3596.01 4717.68 3535.66C4730.82 3525.09 4743.96 3513.77 4757.22 3501.6L4839.72 3548.57L4848.07 3553.24L4858.01 3558.78L5112.76 3703.87Z" fill="#038D00"/>
<path d="M3201.94 5490.17C3201.94 5490.17 2932.7 6171.39 2867.87 6329.4C2803.05 6487.41 2561.8 6679.6 2561.8 6679.6H1272.69C1470.23 6591.19 1874.28 6402.19 2032.41 6264.23C2245.66 6078.55 2561.19 5102.59 2561.19 5102.59L3201.94 5490.17Z" fill="#FAAD3B"/>
<path d="M7451.97 6680.08C7254.43 6591.92 6850.38 6402.68 6692.13 6264.71C6479 6079.04 6163.47 5103.08 6163.47 5103.08L5523.34 5490.17C5523.34 5490.17 5792.21 6171.38 5857.28 6329.39C5922.35 6487.4 6163.47 6679.59 6163.47 6679.59L7451.97 6680.08Z" fill="#FAAD3B"/>
<path d="M3019.74 4016.46L2269.11 5052.3L3154.79 5490.54L3336.87 4242.1L3019.74 4016.46Z" fill="#038D00"/>
<path d="M5663.02 4016.46L6413.65 5052.3L5527.97 5490.54L5345.9 4242.1L5663.02 4016.46Z" fill="#038D00"/>
<path d="M3638.18 2616.53C3647.51 2717.36 3708.9 2793.96 3775.44 2787.81C3841.98 2781.67 3821.97 2706.17 3812.27 2605.46C3802.57 2504.75 3808.1 2416.96 3741.55 2423.1C3675.01 2429.25 3628.97 2515.82 3638.18 2616.53Z" fill="#FAAD3B"/>
<path d="M4859.32 2726.82C4857.72 2840.19 4849.01 2946.68 4826.3 3001.52C4767.37 3142.93 4631.33 3235.15 4570.81 3308.93C4566.39 3314.3 4562.29 3319.93 4558.53 3325.78C4506.47 3402.63 4363.32 3427.83 4309.3 3425.13C4255.4 3427.83 4112.87 3402.63 4060.32 3325.78C4007.77 3248.92 3855.53 3154.49 3791.94 3002.01C3728.34 2849.54 3775.49 2301.12 3775.49 2301.12L4148.22 2230.17L4309.3 2199.43L4843.36 2301.12C4843.36 2301.12 4845.94 2331.13 4849.13 2379.08C4854.41 2461.84 4861.53 2598.94 4859.32 2726.82Z" fill="#FAAD3B"/>
<path d="M3645.12 2174.72C3645.12 2174.72 3828.54 2627.84 4327.85 2556.77C4327.85 2556.77 4189.49 2372.32 4224.97 2166.73L3615.53 2174.72" fill="#64656A"/>
<path d="M3846.38 2318.83L3822.93 2761.99L3720.41 2302.11L3846.38 2318.83Z" fill="#64656A"/>
<path d="M3973.95 2207.06C3973.95 2207.06 4272.66 2601.16 4771.97 2530.21C4771.97 2530.21 4719.55 2306.05 4754.91 2099.84L4059.65 2148.16" fill="#64656A"/>
<path d="M4717.4 2302.1L4744.41 2761.98L4854.41 2474L4849.01 2265.33L4717.4 2302.1Z" fill="#64656A"/>
<path d="M5014.21 2616.53C5005 2717.36 4943.5 2793.96 4876.95 2787.81C4810.41 2781.67 4796.41 2706.17 4805.62 2605.46C4814.83 2504.75 4843.93 2416.96 4910.47 2423.1C4977.01 2429.25 5023.54 2515.82 5014.21 2616.53Z" fill="#FAAD3B"/>
<path d="M5112.73 2145.57C5112.67 2185.48 5110.17 2225.36 5105.24 2264.97H3535.6C3530.77 2225.35 3528.31 2185.48 3528.23 2145.57C3528.23 1872.47 3638.73 1628.14 3812.57 1465.71L3824.85 1454.15C3877.73 1406.59 3936.84 1366.46 4000.54 1334.87C4099.75 1285.58 4208.99 1259.91 4319.74 1259.87C4503.15 1260.8 4679.65 1330.05 4814.89 1454.15C4819.31 1457.96 4823.48 1461.77 4827.16 1465.71C4972.84 1604.42 5068.37 1787.69 5098.74 1986.7C5107.71 2039.19 5112.39 2092.32 5112.73 2145.57V2145.57Z" fill="#FBB516"/>
<path d="M4828.43 1466.07C4820.7 1477.38 4813.58 1488.94 4806.82 1500.75L4798.23 1515.13L4790.62 1530.75L4775.64 1560.51C4766.8 1581.16 4757.84 1601.45 4749.86 1621.99C4741.88 1642.52 4735.13 1664.16 4728.5 1685.31L4712.04 1749.5C4702.42 1792.86 4695.05 1836.7 4689.94 1880.82L4686.02 1913.9L4684.05 1930.26L4683.07 1946.98L4679.63 2013.38C4677.79 2035.51 4679.63 2057.77 4679.63 2079.9L4680.37 2146.42C4683.07 2186.14 4685.77 2225.74 4688.96 2265.33H4607.81C4607.81 2225.74 4607.81 2186.02 4607.81 2146.55L4612.35 2077.81C4614.07 2054.82 4614.56 2031.95 4618.25 2009.08L4627.09 1940.83L4629.3 1923.74L4632.73 1906.89L4639.49 1872.96C4647.94 1828.04 4658.72 1783.59 4671.77 1739.79L4694.37 1674.62C4702.84 1653.22 4712.29 1632.07 4721.25 1611.04C4730.21 1590.02 4742 1569.85 4752.56 1549.56L4770.61 1519.93L4779.57 1505.17L4789.39 1491.03C4797.74 1478.74 4806.46 1466.44 4815.79 1455.25L4828.43 1466.07Z" fill="#CA7E33"/>
<path d="M3963.13 2079.9C3963.13 2057.77 3964.48 2035.51 3963.13 2013.38L3959.57 1946.98L3958.71 1930.26L3956.75 1913.9L3952.82 1880.83C3947.57 1836.7 3940.12 1792.87 3930.47 1749.5L3913.53 1685.07C3906.9 1663.92 3899.29 1642.89 3892.29 1621.74C3885.29 1600.59 3875.35 1580.67 3866.51 1560.26L3850.43 1530.75L3842.69 1515.63L3834.22 1501.24C3827.59 1488.94 3820.35 1477.88 3812.74 1466.56L3825.01 1455.01C3834.22 1466.56 3842.82 1478.61 3851.16 1490.79L3861.23 1504.93L3870.07 1519.68L3888.12 1549.32C3898.68 1569.73 3909.6 1590.02 3919.42 1610.8C3929.25 1631.58 3937.84 1652.98 3946.31 1674.37L3968.9 1739.54C3982.35 1783.52 3993.5 1828.18 4002.3 1873.33L4009.05 1907.26L4012.24 1924.23L4014.45 1941.33L4023.41 2009.57C4026.97 2032.44 4027.46 2055.31 4029.18 2078.31L4033.73 2147.04C4033.73 2186.51 4034.34 2226.23 4033.73 2265.82H3952.33C3955.4 2226.23 3958.22 2186.64 3961.04 2146.92L3963.13 2079.9Z" fill="#CA7E33"/>
<path d="M3535.77 2265.33C3535.77 2265.33 4164.73 2430.84 5105.29 2265.33H3535.77Z" fill="#CA7E33"/>
<g style="mix-blend-mode:multiply" opacity="0.33">
<path d="M5112.73 2145.58C5112.67 2185.49 5110.17 2225.37 5105.24 2264.98H3535.6C3530.77 2225.36 3528.31 2185.49 3528.23 2145.58C3528.23 1872.48 3638.73 1628.15 3812.57 1465.72L3824.85 1454.16C3877.73 1406.6 3936.84 1366.47 4000.54 1334.88C4139.67 1509.25 4309.73 1656.4 4502.18 1768.94C4686.98 1876.08 4889.16 1949.79 5099.47 1986.71C5108.2 2039.22 5112.63 2092.35 5112.73 2145.58V2145.58Z" fill="#F69C1D"/>
</g>
<path d="M5104.88 2265.33H3535.61C3535.61 2265.33 4157.2 2002.8 5104.88 2265.33Z" fill="#FBB516"/>
<path d="M3864.62 3539.11V5559.27H3528.23V3729.21L3749.1 3604.4L3812.69 3568.5L3864.62 3539.11Z" fill="#00AEEF"/>
<path d="M5175.99 3738.31V5559.27H4839.47V3548.21L4847.82 3552.88L5175.99 3738.31Z" fill="#00AEEF"/>
<path d="M7285.34 7603.54C5299.78 7907.57 3279.61 7907.57 1294.05 7603.54C1058.33 6666.56 822.606 5729.54 586.883 4792.48C3040.88 5170.47 5538.15 5170.47 7992.14 4792.48L7285.34 7603.54Z" fill="#9A999D"/>
<path d="M941.08 6200.4L771.041 6460.34L911.86 6732.95C942.212 6791.58 990.415 6839.02 1049.48 6868.38C1108.55 6897.73 1175.42 6907.5 1240.4 6896.25C1445.18 6861.08 1709.63 6795.78 1678.33 6696.31C1627.87 6536.45 1493.43 6123.79 1342.3 6165.84C1191.17 6207.9 969.686 6316.1 969.686 6316.1L941.08 6200.4Z" fill="#FAAD3B"/>
<path d="M7636.88 6200.4L7806.55 6460.34L7659.22 6746.6C7637.09 6789.54 7602.65 6824.88 7560.32 6848.09C7517.99 6871.29 7469.7 6881.29 7421.66 6876.82C7207.91 6856.9 6864.88 6807.22 6899.87 6696.31C6950.33 6536.45 7084.03 6123.79 7235.9 6165.84C7387.77 6207.9 7608.52 6316.1 7608.52 6316.1L7636.88 6200.4Z" fill="#FAAD3B"/>
</g>
</g>
<defs>
<clipPath id="clip0_46_253">
<rect width="8576" height="7538" fill="white"/>
</clipPath>
<clipPath id="clip1_46_253">
<rect width="14238" height="13694" fill="white" transform="translate(-2831 -5588)"/>
</clipPath>
</defs>
</svg>