<svg width="169" height="166" viewBox="0 0 169 166" fill="none" xmlns="http://www.w3.org/2000/svg">
<path d="M140.282 91.0925V89.9167C140.289 82.516 138.79 75.1891 135.874 68.3697C132.959 61.5503 128.686 55.377 123.308 50.215C117.029 44.1905 109.382 39.7323 101.003 37.2117H100.652C94.7774 35.3866 88.6445 34.4993 82.4857 34.5833C67.815 35.3774 54.0069 41.6713 43.8883 52.1766C33.7697 62.6819 28.1059 76.6039 28.0564 91.0925C23.3687 92.7186 19.4158 95.9283 16.8979 100.153C14.38 104.378 13.4596 109.345 14.2997 114.175C15.1399 119.004 17.6862 123.385 21.4879 126.541C25.2896 129.697 30.1012 131.424 35.0705 131.417H133.268C138.237 131.424 143.049 129.697 146.85 126.541C150.652 123.385 153.198 119.004 154.038 114.175C154.878 109.345 153.958 104.378 151.44 100.153C148.922 95.9283 144.969 92.7186 140.282 91.0925V91.0925ZM133.268 117.583H35.0705C33.2102 117.583 31.4262 116.855 30.1108 115.557C28.7954 114.26 28.0564 112.501 28.0564 110.667C28.0564 108.832 28.7954 107.073 30.1108 105.776C31.4262 104.479 33.2102 103.75 35.0705 103.75H49.0986C50.9589 103.75 52.7429 103.021 54.0583 101.724C55.3737 100.427 56.1127 98.6677 56.1127 96.8333C56.1127 94.9989 55.3737 93.2396 54.0583 91.9425C52.7429 90.6454 50.9589 89.9167 49.0986 89.9167H42.0846C42.4045 82.7427 44.4866 75.7528 48.152 69.5479C51.8174 63.3431 56.9563 58.109 63.1268 54.2958V76.0833C63.1268 77.9177 63.8658 79.677 65.1812 80.9742C66.4966 82.2713 68.2806 83 70.1409 83C72.0011 83 73.7852 82.2713 75.1006 80.9742C76.416 79.677 77.155 77.9177 77.155 76.0833V49.0392C79.0588 48.7255 80.979 48.5177 82.9065 48.4167H84.1691C86.5235 48.438 88.8711 48.6695 91.1831 49.1083V76.0833C91.1831 77.9177 91.9221 79.677 93.2375 80.9742C94.5529 82.2713 96.337 83 98.1972 83C100.057 83 101.842 82.2713 103.157 80.9742C104.472 79.677 105.211 77.9177 105.211 76.0833V54.0883C108.187 55.7872 110.962 57.8053 113.488 60.1058C117.532 63.9785 120.746 68.6128 122.939 73.7337C125.132 78.8547 126.259 84.3579 126.254 89.9167H119.239C117.379 89.9167 115.595 90.6454 114.28 91.9425C112.964 93.2396 112.225 94.9989 112.225 96.8333C112.225 98.6677 112.964 100.427 114.28 101.724C115.595 103.021 117.379 103.75 119.239 103.75H133.268C135.128 103.75 136.912 104.479 138.227 105.776C139.543 107.073 140.282 108.832 140.282 110.667C140.282 112.501 139.543 114.26 138.227 115.557C136.912 116.855 135.128 117.583 133.268 117.583Z" fill="#263238"/>
</svg>
