<svg width="85" height="85" viewBox="0 0 85 85" fill="none" xmlns="http://www.w3.org/2000/svg">
<path d="M6.72921 34.7083L26.5625 16.6458C29.3959 14.1667 33.2917 13.4583 36.8334 14.875C40.375 16.6458 42.8542 20.1875 42.8542 24.0833V25.8542H49.2292C66.9375 25.8542 81.4584 40.7292 81.4584 59.5V67.2917C81.4584 68.7083 80.3959 70.125 78.9792 70.8333C78.625 70.8333 78.2709 70.8333 77.9167 70.8333C76.8542 70.8333 75.4375 70.125 75.0834 69.0625C69.7709 60.5625 60.9167 55.6042 51 55.6042H42.8542V60.5625C42.8542 64.8125 40.7292 68.3542 36.8334 69.7708C33.2917 71.1875 29.3959 70.4792 26.5625 68L6.72921 49.9375C4.60421 47.8125 3.54171 45.3333 3.54171 42.5C3.54171 39.6667 4.60421 36.8333 6.72921 34.7083Z" fill="#263238"/>
</svg>
