<svg fill="none" xmlns="http://www.w3.org/2000/svg" viewBox="-0.03 -0.03 8869.83 5556.03">
<path d="M4776.52 5502.89C4780.31 5440.16 4783.95 5380.39 4787.15 5324.71C4800.52 5098.2 4809.06 4943.63 4809.06 4943.63L4720.29 4939.62L4670.6 4938.06L4067.29 4911.26C4067.29 4911.26 4056.3 5084.17 4043.37 5338.08C4040.7 5390.05 4037.95 5445.36 4035.2 5503.27L4776.52 5502.89Z" fill="#173259"/>
<path d="M4720.32 4939.9L4809.08 4943.91C4809.08 4943.91 4800.54 5098.48 4787.17 5324.99C4539.73 5346.35 4291.12 5350.59 4043.1 5337.69C4056.02 5083.78 4067.02 4910.87 4067.02 4910.87L4670.62 4938.04L4720.32 4939.9Z" fill="#071736"/>
<path d="M4688.65 5502.89C4702.62 5261 4714.13 5053.72 4720.37 4939.98L4670.6 4938.05C4664.36 5052.38 4652.85 5260.56 4638.81 5503.26L4688.65 5502.89Z" fill="#071736"/>
<path d="M4971 5502.88H5712.62C5709.87 5444.97 5707.12 5389.59 5704.52 5337.69C5691.6 5083.78 5680.6 4910.87 5680.6 4910.87L5077.3 4938.04L5027.23 4940.27L4938.1 4944.28C4938.1 4944.28 4946.71 5098.85 4960.38 5325.37C4963.65 5380.38 4967.21 5440.15 4971 5502.88Z" fill="#173259"/>
<path d="M5027.17 4939.9L4938.03 4943.91C4938.03 4943.91 4946.65 5098.48 4960.31 5325C5207.77 5346.35 5456.41 5350.6 5704.46 5337.69C5691.53 5083.78 5680.54 4910.87 5680.54 4910.87L5077.31 4938.04L5027.17 4939.9Z" fill="#071736"/>
<path d="M5108.85 5502.89C5094.81 5260.19 5083.23 5052.01 5076.99 4937.68L5026.99 4939.98C5033.23 5053.72 5044.67 5261 5058.71 5502.89H5108.85Z" fill="#071736"/>
<path d="M5766.25 4827.2C5766.25 4898.4 5766.25 4954.9 5765.66 4993.06C5599.47 5037.97 5430.27 5070.9 5259.36 5091.58L5245.84 5093.22L5223.56 5095.81L5217.84 5096.33C5188.57 5099.53 5159.45 5102.35 5130.11 5104.8C5069.28 5109.85 4980.81 5114.15 4920.05 5115.79L4872.81 4835L4825.64 5115.79C4790.73 5115.27 4729.82 5114.15 4694.9 5112.59C4682.13 5111.92 4669.43 5111.33 4656.8 5110.51C4645.43 5109.99 4633.84 5109.18 4622.48 5108.36C4617.28 5108.36 4612.15 5107.77 4606.96 5107.4L4577.99 5105.24C4361.85 5087.56 4147.81 5050.01 3938.58 4993.06C3937.46 4909.09 3936.35 4738.26 3936.13 4517.91C3936.13 4505.81 3936.13 4493.56 3936.13 4480.79C3936.13 4237.57 3936.72 3938.82 3939.62 3631.75C3939.91 3607.45 3940.19 3583.09 3940.43 3558.69C3940.73 3525.78 3941.1 3492.72 3941.55 3459.5C3941.55 3452.75 3941.55 3446.14 3941.55 3439.46C3941.55 3426.1 3941.55 3412.66 3942.07 3399.37C3942.07 3379.92 3942.59 3360.54 3942.89 3341.16C3943.55 3297.14 3944.15 3253.11 3944.89 3209.38C3955.14 2599.18 3975.72 2038.43 4015.01 1895.66C4017.41 1885.68 4021.24 1876.1 4026.38 1867.22C4030.87 1860.43 4035.84 1853.95 4041.23 1847.84C4049.18 1838.83 4057.64 1830.28 4066.56 1822.23C4131.93 1762.09 4245.36 1692.23 4360.34 1625.93L4400.6 1602.84C4402.61 1601.8 4713.03 1497.12 4715.11 1495.86L5039.79 1518.58C5078.86 1541.52 5386.09 1645.9 5423.75 1669.37C5434.89 1676.34 5446.03 1683.32 5456.73 1690.23C5545.12 1747.17 5620.14 1803.67 5652.98 1851.78C5700.22 1921.27 5728.82 2544.24 5745.31 3222C5745.75 3237.59 5746.15 3253.18 5746.5 3268.78C5748.2 3340.49 5749.84 3412.58 5751.25 3484.6C5752.66 3556.61 5753.92 3626.77 5755.11 3697.16C5757.04 3812.53 5758.68 3926.05 5760.01 4035.41C5760.01 4047.8 5760.01 4060.13 5760.46 4072.53C5761.8 4179.14 5762.76 4281.37 5763.58 4376.92C5763.58 4389.47 5763.58 4401.79 5763.58 4414.04C5764.62 4557.41 5765.29 4684.21 5765.36 4786.07C5766.25 4800.33 5766.25 4813.91 5766.25 4827.2Z" fill="white"/>
<path d="M4889.06 1984.82L5077.96 3578.52L4873.54 3972.89L4663.69 3578.52L4863.88 1985.27L4889.06 1984.82Z" fill="#0093CF"/>
<path d="M5006.22 1921.42L4874.82 2132.04L4739.33 1923.2L4872.74 1668.47L5006.22 1921.42Z" fill="white"/>
<path d="M4686.22 1470.92C4686.22 1470.92 4569.38 1469.65 4529.86 1563.79C4529.86 1563.79 4517.9 1852.6 4739.34 1923.57L4873.04 1668.85C4873.04 1668.85 4706.5 1617.17 4686.22 1470.92Z" fill="#045388"/>
<path d="M5047.14 1470.91C5047.14 1470.91 5147.27 1485.76 5186.87 1579.68C5186.87 1579.68 5227.42 1852.6 5005.92 1923.57L4872.73 1668.85C4872.73 1668.85 5027.16 1617.17 5047.14 1470.91Z" fill="#045388"/>
<path d="M4919.96 4137.18C4919.97 4146.52 4917.21 4155.66 4912.03 4163.43C4906.85 4171.21 4899.47 4177.27 4890.84 4180.86C4882.21 4184.44 4872.71 4185.39 4863.54 4183.58C4854.37 4181.76 4845.95 4177.27 4839.33 4170.67C4832.72 4164.07 4828.21 4155.66 4826.38 4146.49C4824.55 4137.33 4825.49 4127.84 4829.06 4119.2C4832.63 4110.57 4838.69 4103.19 4846.46 4098C4854.23 4092.81 4863.37 4090.04 4872.71 4090.04C4878.91 4090.03 4885.05 4091.24 4890.79 4093.6C4896.52 4095.97 4901.73 4099.44 4906.11 4103.82C4910.5 4108.2 4913.98 4113.4 4916.36 4119.12C4918.73 4124.85 4919.96 4130.98 4919.96 4137.18V4137.18Z" fill="#045388"/>
<path d="M4919.96 4513.16C4919.96 4522.5 4917.19 4531.63 4911.99 4539.39C4906.8 4547.16 4899.42 4553.21 4890.79 4556.78C4882.16 4560.36 4872.66 4561.29 4863.5 4559.47C4854.33 4557.65 4845.91 4553.15 4839.31 4546.55C4832.7 4539.95 4828.2 4531.53 4826.38 4522.37C4824.55 4513.21 4825.49 4503.72 4829.07 4495.09C4832.64 4486.46 4838.7 4479.09 4846.47 4473.9C4854.23 4468.71 4863.37 4465.94 4872.71 4465.94C4885.24 4465.94 4897.26 4470.92 4906.12 4479.77C4914.98 4488.63 4919.96 4500.64 4919.96 4513.16V4513.16Z" fill="#045388"/>
<path d="M5104.69 2438.97H5503.8V2682.7C5503.8 2733.03 5483.8 2781.3 5448.19 2816.89C5412.58 2852.48 5364.29 2872.47 5313.94 2872.47H5294.55C5244.2 2872.47 5195.91 2852.48 5160.3 2816.89C5124.69 2781.3 5104.69 2733.03 5104.69 2682.7V2438.97Z" fill="#0093CF"/>
<path d="M4425.47 668.425C4425.47 668.425 4432.9 495.439 4409.5 426.616C4368.2 304.784 4388.11 211.312 4479.25 182.135C4583.61 148.8 4497.82 76.1906 4598.47 44.4147C4699.12 12.6388 4723.63 98.3149 4784.69 65.6481C4845.75 32.9813 4866.4 9.29783 4927.01 1.20537C5018.97 -11.1932 5024.77 76.4134 5088.2 64.7573C5193.68 45.3057 5252.59 113.238 5273.91 182.135C5295.23 251.032 5278.96 270.484 5327.69 290.678C5400.18 320.375 5387.11 439.831 5347.15 490.168C5307.18 540.505 5313.94 560.402 5311.12 639.99C5308.3 719.578 4425.47 668.425 4425.47 668.425Z" fill="#173259"/>
<path d="M5266.5 822.923C5266.5 822.923 5342.71 721.359 5399.38 805.328C5456.06 889.296 5375.91 1137.34 5237.16 1076.83L5266.5 822.923Z" fill="#F79E83"/>
<path d="M5267.46 1000.14C5270.02 1000.14 5272.5 999.309 5274.54 997.768C5276.58 996.227 5278.06 994.063 5278.75 991.605C5300.22 915.061 5379.62 884.028 5380.44 883.731C5383.4 882.628 5385.79 880.397 5387.1 877.529C5388.41 874.661 5388.53 871.39 5387.42 868.437C5386.32 865.483 5384.09 863.089 5381.22 861.78C5378.35 860.471 5375.08 860.355 5372.12 861.458C5368.41 862.869 5280.91 896.797 5256.17 984.998C5255.71 986.504 5255.55 988.088 5255.71 989.656C5255.86 991.224 5256.33 992.745 5257.09 994.129C5257.84 995.513 5258.86 996.732 5260.1 997.714C5261.33 998.696 5262.75 999.421 5264.27 999.846C5265.32 1000.09 5266.39 1000.19 5267.46 1000.14V1000.14Z" fill="#F37873"/>
<path d="M5347.61 961.613C5349.85 961.617 5352.04 960.972 5353.93 959.756C5356.53 958.069 5358.36 955.418 5359.02 952.385C5359.67 949.351 5359.1 946.182 5357.42 943.572C5346.22 928.003 5331.03 915.742 5313.44 908.083C5312.02 907.358 5310.47 906.928 5308.88 906.821C5307.3 906.714 5305.7 906.931 5304.2 907.459C5302.7 907.987 5301.32 908.815 5300.14 909.893C5298.97 910.971 5298.03 912.277 5297.38 913.729C5296.73 915.182 5296.38 916.752 5296.36 918.344C5296.33 919.936 5296.63 921.516 5297.24 922.988C5297.85 924.46 5298.74 925.794 5299.88 926.907C5301.02 928.021 5302.37 928.891 5303.86 929.465C5317.28 935.319 5328.95 944.554 5337.73 956.267C5338.81 957.908 5340.27 959.256 5342 960.189C5343.72 961.122 5345.65 961.611 5347.61 961.613V961.613Z" fill="#F37873"/>
<path d="M4481.12 822.925C4481.12 822.925 4404.91 721.064 4348.23 805.33C4291.56 889.595 4371.71 1137.34 4510.46 1076.84L4481.12 822.925Z" fill="#F79E83"/>
<path d="M4480.14 1000.14C4477.59 1000.14 4475.1 999.309 4473.07 997.768C4471.03 996.227 4469.55 994.063 4468.85 991.605C4447.76 915.061 4367.98 884.399 4367.17 883.731C4364.21 882.628 4361.81 880.397 4360.5 877.529C4359.2 874.661 4359.08 871.39 4360.18 868.437C4361.29 865.483 4363.52 863.089 4366.39 861.78C4369.26 860.471 4372.53 860.355 4375.48 861.458C4379.2 862.869 4466.7 896.797 4491.44 984.998C4491.9 986.504 4492.06 988.088 4491.9 989.656C4491.75 991.224 4491.28 992.745 4490.52 994.129C4489.77 995.513 4488.74 996.732 4487.51 997.714C4486.27 998.696 4484.86 999.421 4483.34 999.846C4482.29 1000.09 4481.22 1000.19 4480.14 1000.14V1000.14Z" fill="#F37873"/>
<path d="M4399.99 961.613C4397.75 961.617 4395.56 960.972 4393.68 959.756C4391.07 958.069 4389.24 955.418 4388.59 952.385C4387.94 949.351 4388.51 946.182 4390.19 943.572C4401.39 928.003 4416.58 915.742 4434.16 908.083C4435.58 907.358 4437.13 906.928 4438.72 906.821C4440.31 906.714 4441.91 906.931 4443.41 907.459C4444.91 907.987 4446.29 908.815 4447.46 909.893C4448.63 910.971 4449.57 912.277 4450.22 913.729C4450.88 915.182 4451.22 916.752 4451.25 918.344C4451.27 919.936 4450.97 921.516 4450.37 922.988C4449.76 924.46 4448.86 925.794 4447.72 926.907C4446.59 928.021 4445.23 928.891 4443.75 929.465C4430.31 935.289 4418.63 944.53 4409.87 956.267C4408.8 957.908 4407.34 959.256 4405.61 960.189C4403.89 961.122 4401.96 961.611 4399.99 961.613V961.613Z" fill="#F37873"/>
<path d="M4686.2 1287.24V1533.88C4686.2 1533.88 4759.81 1659.49 4859.35 1668.03C4958.88 1676.57 5047.13 1560.01 5047.13 1560.01V1304.54L4686.2 1287.24Z" fill="#FABDAC"/>
<path d="M4686.2 1287.24V1396.67C4753.05 1470.92 4871.9 1489.25 5047.13 1463.49V1304.54L4686.2 1287.24Z" fill="#F79E83"/>
<path d="M4426.07 653.806C4430.6 749.653 4439.67 869.555 4458.01 965.625C4457.99 965.946 4457.99 966.269 4458.01 966.59V966.59C4462.54 989.977 4467.6 1012.03 4472.87 1031.78C4476.21 1043.43 4479.78 1055.53 4483.86 1068.01C4542.4 1251.39 4677.88 1516.88 5018.68 1395.42C5162.19 1344.34 5236.85 1196.22 5274.95 1035.64C5277.11 1026.06 5279.26 1016.63 5281.12 1007.5C5282.38 1001.41 5283.57 995.545 5284.68 989.68L5286.32 981.142C5286.32 979.657 5286.84 978.692 5286.91 978.024C5286.93 977.851 5286.93 977.677 5286.91 977.504C5305.85 866.02 5313.96 752.967 5311.13 639.922C5310.27 595.196 5297.76 551.466 5274.83 513.046C5251.91 474.625 5219.36 442.842 5180.39 420.832C4965.87 299.222 4739.31 344.585 4590.16 401.9C4539.76 421.279 4496.76 456.063 4467.3 501.294C4437.84 546.526 4423.41 599.898 4426.07 653.806Z" fill="#FABDAC"/>
<path d="M4661.03 832.427C4661.03 858.783 4674.62 880.091 4691.41 880.091C4708.19 880.091 4721.71 858.783 4721.71 832.427C4721.71 806.07 4708.12 784.763 4691.41 784.763C4674.69 784.763 4661.03 805.848 4661.03 832.427Z" fill="#173259"/>
<path d="M5040.16 832.427C5040.16 858.783 5053.75 880.091 5070.46 880.091C5087.18 880.091 5100.77 858.783 5100.77 832.427C5100.77 806.07 5087.25 784.763 5070.46 784.763C5053.68 784.763 5040.16 805.848 5040.16 832.427Z" fill="#173259"/>
<path d="M4583.4 671.395C4583.4 671.395 4708.71 621.875 4805.2 663.525L4795.55 717.203C4795.55 717.203 4653.97 705.25 4582.58 734.13C4575.61 713.75 4575.9 691.587 4583.4 671.395V671.395Z" fill="#173259"/>
<path d="M5179.22 671.622C5179.22 671.622 5052.95 621.805 4955.79 663.752L4965.52 717.801C4965.52 717.801 5108.21 705.699 5180.04 734.802C5187.13 714.288 5186.84 691.946 5179.22 671.622Z" fill="#173259"/>
<path d="M4869.76 1045.21C4855.18 1044.75 4840.8 1041.73 4827.27 1036.3C4824.52 1035.03 4822.37 1032.75 4821.27 1029.94C4820.17 1027.12 4820.19 1023.99 4821.34 1021.2C4822.49 1018.4 4824.68 1016.16 4827.44 1014.93C4830.2 1013.71 4833.33 1013.6 4836.18 1014.62C4846.73 1018.85 4872.13 1025.61 4883.2 1019C4885 1017.81 4886.46 1016.19 4887.46 1014.28C4888.46 1012.37 4888.96 1010.24 4888.92 1008.09C4893.15 967.181 4881.94 829.906 4881.86 828.644C4881.73 827.112 4881.9 825.569 4882.37 824.104C4882.84 822.639 4883.59 821.281 4884.58 820.108C4885.58 818.935 4886.79 817.97 4888.16 817.269C4889.53 816.568 4891.03 816.144 4892.56 816.022C4895.66 815.775 4898.73 816.759 4901.11 818.76C4903.49 820.761 4904.98 823.619 4905.26 826.713C4905.71 832.504 4916.7 967.774 4912.24 1010.54C4911.95 1016.33 4910.24 1021.95 4907.28 1026.93C4904.32 1031.92 4900.18 1036.1 4895.23 1039.12C4887.45 1043.42 4878.64 1045.53 4869.76 1045.21Z" fill="#F79E83"/>
<path d="M5019.2 1134.44C5010.29 1178.98 4980.72 1261.54 4881.04 1261.54C4781.36 1261.54 4753.13 1186.33 4743.47 1134.44H5019.2Z" fill="white"/>
<path d="M4425.99 653.716C4430.6 749.564 4439.74 869.466 4458.01 965.536L4510.45 961.824C4510.45 961.824 4497.75 880.899 4491.88 828.187C4486.01 775.474 4476.06 676.88 4521.07 664.853C4566.09 652.825 4539.64 540.199 4602.11 491.496C4664.58 442.793 4804.38 429.206 4896.56 485.928C4988.74 542.649 5092.51 481.622 5135 491.496C5177.49 501.37 5235.21 559.799 5219.61 614.516C5204.01 669.233 5250.8 702.42 5262.17 758.992C5273.53 815.565 5237.21 967.912 5237.21 967.912L5287.28 978.009C5306.22 866.55 5314.33 753.521 5311.49 640.501C5310.65 595.781 5298.15 552.052 5275.24 513.632C5252.33 475.211 5219.79 443.425 5180.83 421.411C4966.16 299.801 4739.61 345.089 4590.52 402.405C4540.17 421.726 4497.19 456.398 4467.66 501.505C4438.13 546.612 4423.55 599.866 4425.99 653.716V653.716Z" fill="#173259"/>
<path d="M4093.73 1799.43C4093.73 1799.43 3785.39 2005.08 3587.21 2066.26L3719.8 2622.11C3719.8 2622.11 3738.07 2614.69 3962.99 2518.99L4093.73 1799.43Z" fill="#1A6989"/>
<path d="M5605.59 1799.43C5605.59 1799.43 6194.94 2101.38 6392.97 2162.55C6317.2 2299.16 6268.77 2426.19 6204.3 2609.34C6204.3 2609.34 5921.06 2534.43 5696.22 2438.59L5605.59 1799.43Z" fill="#1A6989"/>
<path d="M8000.38 5506.6C7989.46 5300.35 7980.92 5165.67 7980.92 5165.67L7375.97 5192.55L7325.83 5194.78L7236.7 5198.79C7236.7 5198.79 7243.46 5320.69 7254.3 5506.6H8000.38Z" fill="#445FAB"/>
<path d="M8000.38 5506.6C7989.46 5300.35 7980.92 5165.67 7980.92 5165.67L7375.97 5192.55L7325.83 5194.78L7236.7 5198.79C7236.7 5198.79 7243.46 5320.69 7254.3 5506.6H8000.38Z" fill="#173259"/>
<path d="M7393.46 5506.61C7386.03 5374.46 7379.94 5264.8 7375.93 5192.56L7325.79 5194.79C7329.73 5266.58 7335.74 5375.42 7343.17 5506.61H7393.46Z" fill="#071736"/>
<path d="M7064 5506.6C7074.92 5320.62 7081.68 5198.79 7081.68 5198.79L6985.11 5194.48L6935.05 5192.18L6337.53 5165.67C6337.53 5165.67 6330.92 5268.94 6322.01 5432.95C6320.67 5456.26 6319.41 5480.76 6318.07 5506.37L7064 5506.6Z" fill="#173259"/>
<path d="M6967.75 5506.6C6975.18 5375.19 6981.2 5266.2 6985.13 5194.78L6934.99 5192.48C6931.06 5264.79 6924.97 5374.52 6917.54 5506.9L6967.75 5506.6Z" fill="#071736"/>
<path d="M6686.51 764.716C6686.51 1037.19 6854.38 1225.02 7126.92 1225.02C7399.46 1225.02 7589.84 1023.08 7589.84 750.758C7590.56 680.011 7578.4 609.722 7553.96 543.324C7552.62 539.612 7551.21 535.9 7549.72 532.336C7546.83 525.283 7543.78 518.23 7540.59 511.4C7535.83 500.857 7530.49 490.612 7524.99 480.663C7453.9 353.04 7326.66 271.818 7155.74 271.818C6828.61 271.67 6686.51 492.171 6686.51 764.716Z" fill="#173259"/>
<path d="M6852.3 344.352C6852.3 400.87 6869.07 456.119 6900.49 503.112C6931.9 550.105 6976.55 586.732 7028.8 608.36C7081.04 629.989 7138.53 635.648 7193.99 624.622C7249.45 613.596 7300.39 586.379 7340.37 546.415C7380.36 506.451 7407.59 455.533 7418.62 400.101C7429.65 344.669 7423.99 287.212 7402.35 234.996C7380.71 182.781 7344.07 138.151 7297.05 106.751C7250.03 75.3514 7194.76 58.5919 7138.21 58.5919C7062.38 58.5919 6989.66 88.6987 6936.04 142.289C6882.43 195.88 6852.3 268.564 6852.3 344.352V344.352Z" fill="#173259"/>
<path d="M6747.7 882.02C6747.7 882.02 6672.01 781.05 6615.64 864.573C6559.26 948.096 6638.96 1194.58 6776.82 1134.37L6747.7 882.02Z" fill="#F79E83"/>
<path d="M6746.75 1058.19C6744.21 1058.17 6741.74 1057.32 6739.72 1055.78C6737.7 1054.24 6736.23 1052.1 6735.53 1049.66C6714.14 973.558 6635.25 942.673 6634.51 942.376C6632.98 941.91 6631.56 941.136 6630.35 940.102C6629.13 939.068 6628.14 937.795 6627.44 936.363C6626.74 934.931 6626.34 933.37 6626.26 931.776C6626.19 930.183 6626.44 928.591 6627.01 927.099C6627.57 925.607 6628.44 924.247 6629.55 923.104C6630.66 921.96 6632 921.056 6633.47 920.449C6634.95 919.842 6636.53 919.544 6638.13 919.574C6639.73 919.604 6641.3 919.961 6642.75 920.623C6646.39 922.034 6733.37 955.74 6757.96 1043.42C6758.38 1044.89 6758.5 1046.42 6758.33 1047.94C6758.15 1049.45 6757.68 1050.92 6756.93 1052.25C6756.18 1053.58 6755.18 1054.75 6753.98 1055.7C6752.78 1056.64 6751.41 1057.34 6749.94 1057.75C6748.9 1058.04 6747.83 1058.19 6746.75 1058.19V1058.19Z" fill="#F37873"/>
<path d="M6667.11 1019.8C6665.03 1019.8 6662.99 1019.23 6661.2 1018.16C6659.41 1017.1 6657.93 1015.57 6656.93 1013.75C6655.93 1011.92 6655.44 1009.86 6655.5 1007.78C6655.57 1005.7 6656.19 1003.67 6657.31 1001.91C6668.45 986.438 6683.57 974.255 6701.06 966.646C6703.84 965.615 6706.9 965.678 6709.63 966.823C6712.36 967.968 6714.56 970.109 6715.77 972.811C6716.98 975.513 6717.11 978.574 6716.15 981.372C6715.18 984.171 6713.19 986.497 6710.57 987.88C6697.21 993.669 6685.61 1002.86 6676.92 1014.53C6675.85 1016.16 6674.4 1017.49 6672.69 1018.41C6670.97 1019.33 6669.06 1019.81 6667.11 1019.8V1019.8Z" fill="#F37873"/>
<path d="M7528.34 882.02C7528.34 882.02 7604.1 781.05 7660.41 864.573C7716.72 948.096 7637.09 1194.58 7499.22 1134.37L7528.34 882.02Z" fill="#F79E83"/>
<path d="M7529.3 1058.2C7531.85 1058.2 7534.33 1057.36 7536.35 1055.82C7538.38 1054.28 7539.84 1052.11 7540.52 1049.66C7561.91 973.564 7640.8 942.678 7641.61 942.381C7644.37 941.184 7646.55 938.973 7647.71 936.207C7648.88 933.441 7648.93 930.334 7647.85 927.532C7646.78 924.73 7644.67 922.448 7641.96 921.163C7639.25 919.877 7636.14 919.686 7633.3 920.628C7629.66 922.039 7542.68 955.745 7518.09 1043.43C7517.67 1044.9 7517.55 1046.44 7517.73 1047.96C7517.91 1049.48 7518.4 1050.95 7519.15 1052.28C7519.9 1053.61 7520.91 1054.78 7522.12 1055.72C7523.33 1056.66 7524.71 1057.35 7526.19 1057.75C7527.2 1058.05 7528.25 1058.2 7529.3 1058.2Z" fill="#F37873"/>
<path d="M7608.93 1019.8C7611.01 1019.8 7613.06 1019.23 7614.85 1018.17C7616.64 1017.1 7618.11 1015.57 7619.11 1013.75C7620.11 1011.92 7620.6 1009.86 7620.54 1007.78C7620.47 1005.7 7619.85 1003.67 7618.73 1001.91C7607.59 986.438 7592.47 974.255 7574.98 966.646C7572.21 965.615 7569.14 965.678 7566.41 966.823C7563.68 967.968 7561.48 970.109 7560.28 972.811C7559.07 975.513 7558.93 978.574 7559.9 981.373C7560.86 984.171 7562.86 986.498 7565.47 987.88C7578.83 993.669 7590.43 1002.86 7599.12 1014.53C7600.19 1016.15 7601.65 1017.49 7603.36 1018.41C7605.07 1019.33 7606.99 1019.81 7608.93 1019.8V1019.8Z" fill="#F37873"/>
<path d="M7324.52 1343.5V1588.51C7324.52 1588.51 7251.35 1713.31 7152.41 1722.14C7053.47 1730.98 6965.89 1614.49 6965.89 1614.49V1360.73L7324.52 1343.5Z" fill="#FABDAC"/>
<path d="M7324.51 1343.5V1452.27C7258.1 1525.84 7140.21 1544.26 6965.73 1518.49V1360.73L7324.51 1343.5Z" fill="#F79E83"/>
<path d="M6702.92 776.222C6702.92 780.677 6702.92 785.28 6702.92 789.883C6702.92 801.836 6703.59 813.937 6704.19 826.41C6704.19 832.721 6704.78 839.031 6705.15 845.342C6705.52 851.653 6705.82 858.112 6706.34 864.571C6706.34 864.571 6706.34 865.685 6706.34 866.724C6706.71 872.441 6707.23 878.157 6707.6 884.097C6711.32 931.983 6717.11 982.32 6726.1 1032.58C6726.1 1033.62 6726.54 1034.81 6726.69 1035.85C6728.18 1044.02 6729.81 1052.18 6731.45 1060.27C6766.51 1232.44 6840.86 1396.97 6993.29 1451.31C7354.81 1580.35 7483.54 1270.6 7535.54 1089.9C7540.22 1073.56 7544.6 1055.52 7548.31 1036.59C7549.2 1032.36 7550.1 1028.13 7550.84 1023.75C7550.84 1022.71 7551.28 1021.67 7551.43 1020.48C7569.11 926.638 7578.1 810.448 7582.63 716.828C7582.63 715.863 7582.63 714.972 7582.63 714.081C7585.16 660.492 7570.74 607.468 7541.4 562.541C7512.06 517.614 7469.31 483.067 7419.21 463.809C7270.65 406.865 7045.8 361.725 6832.39 482.592C6793.67 504.497 6761.32 536.102 6738.53 574.296C6715.74 612.49 6703.29 655.957 6702.4 700.42C6702.55 723.361 6702.48 748.975 6702.92 776.222Z" fill="#FABDAC"/>
<path d="M6726.48 1032.37C6726.48 1033.4 6726.93 1034.59 6727.08 1035.63C6760.06 1216.41 6834.11 1394.15 6993.67 1451.39C7355.19 1580.43 7483.92 1270.69 7535.92 1089.98C7541.64 1069.93 7546.76 1047.59 7551.22 1023.83C7551.22 1022.79 7551.67 1021.75 7551.81 1020.56L7512.97 1017.81C7490.27 1063.41 7465.07 1107.73 7437.5 1150.56C7392.48 1051.74 7175.43 1123.61 7175.43 1123.61C7148.45 1132.22 7119.45 1132.22 7092.46 1123.61H7091.42C7091.42 1123.61 6871.78 1054.79 6828.47 1158.43C6800.83 1117.59 6781.17 1071.9 6770.53 1023.75L6726.48 1032.37ZM7133.91 1170.23C7382.97 1127.4 7340.93 1252.27 7336.77 1278.41C7321.53 1293.53 7304.34 1306.56 7285.67 1317.16C7189.1 1369.13 7178.78 1361.71 7140.67 1363.12C7102.57 1364.53 7048.64 1353.47 6994.49 1323.25C6969.38 1308.15 6945.97 1290.41 6924.66 1270.31C6924.66 1270.31 6885.52 1136.83 7133.91 1170.23Z" fill="#173259"/>
<path d="M6983.06 914.094C6983.06 940.302 6969.54 961.461 6952.9 961.461C6936.26 961.461 6922.74 940.302 6922.74 914.094C6922.74 887.886 6936.26 866.727 6952.9 866.727C6969.54 866.727 6983.06 887.812 6983.06 914.094Z" fill="#173259"/>
<path d="M7338.33 913.05C7338.33 939.184 7324.81 960.417 7308.17 960.417C7291.53 960.417 7278.02 939.184 7278.02 913.05C7278.02 886.917 7291.53 865.684 7308.17 865.684C7324.81 865.684 7338.33 886.843 7338.33 913.05Z" fill="#173259"/>
<path d="M7406.43 750.17C7406.43 750.17 7311.35 712.603 7238.11 744.231L7245.54 784.99C7245.54 784.99 7353.02 775.858 7407.17 797.834C7412.42 782.335 7412.16 765.499 7406.43 750.17V750.17Z" fill="#173259"/>
<path d="M6852.31 750.17C6852.31 750.17 6947.46 712.603 7020.62 744.231L7013.2 784.99C7013.2 784.99 6905.71 775.858 6851.56 797.834C6846.31 782.335 6846.57 765.499 6852.31 750.17V750.17Z" fill="#173259"/>
<path d="M7152.48 1112.62C7166.96 1112.15 7181.24 1109.13 7194.67 1103.71C7196.18 1103.19 7197.56 1102.38 7198.73 1101.31C7199.91 1100.24 7200.85 1098.94 7201.51 1097.5C7202.16 1096.05 7202.51 1094.48 7202.54 1092.9C7202.57 1091.31 7202.28 1089.73 7201.67 1088.26C7201.07 1086.79 7200.17 1085.46 7199.04 1084.35C7197.9 1083.24 7196.55 1082.38 7195.07 1081.81C7193.58 1081.24 7192 1080.98 7190.41 1081.04C7188.82 1081.1 7187.27 1081.49 7185.83 1082.18C7175.29 1086.41 7150.03 1093.17 7139.11 1086.56C7137.31 1085.39 7135.84 1083.78 7134.84 1081.89C7133.84 1079.99 7133.34 1077.87 7133.39 1075.72C7129.16 1035.04 7140.3 898.727 7140.82 897.539C7140.95 896.013 7140.77 894.477 7140.31 893.019C7139.84 891.561 7139.09 890.209 7138.1 889.04C7137.11 887.872 7135.9 886.909 7134.54 886.208C7133.18 885.507 7131.69 885.081 7130.16 884.955C7128.64 884.828 7127.1 885.003 7125.64 885.47C7124.18 885.937 7122.83 886.686 7121.66 887.675C7120.49 888.665 7119.53 889.874 7118.83 891.235C7118.12 892.597 7117.7 894.083 7117.57 895.608C7117.13 901.325 7106.13 1035.48 7110.59 1078.25C7110.88 1084.02 7112.57 1089.63 7115.52 1094.6C7118.47 1099.57 7122.59 1103.74 7127.53 1106.75C7135.18 1110.88 7143.79 1112.9 7152.48 1112.62Z" fill="#F79E83"/>
<path d="M6985.63 1201.57C7004.95 1268.39 7059.91 1335.87 7135.9 1336.76C7211.67 1335.87 7266.71 1268.76 7286.1 1201.57H6985.63Z" fill="white"/>
<path d="M6702.94 776.234C6702.94 780.688 6702.94 785.291 6702.94 789.894C6702.94 801.848 6703.76 814.023 6704.2 826.422C6704.2 832.733 6704.8 839.043 6705.17 845.354C6705.54 851.664 6705.84 858.123 6706.36 864.583C6706.36 864.583 6706.36 865.696 6706.36 866.736C6706.73 872.452 6707.25 878.169 6707.62 884.108C6711.33 931.995 6717.13 982.331 6726.12 1032.59C6726.12 1033.63 6726.56 1034.82 6726.71 1035.86C6728.2 1044.03 6729.83 1052.19 6731.46 1060.29L6771.57 1030.59C6769.05 1004.6 6748.4 834.514 6751.67 818.478C6762.96 762.202 6830.41 702.065 6814.81 647.72C6799.21 593.374 6776.18 523.141 6818.37 513.489C6860.56 503.838 7034.45 502.13 7142.68 505.619C7250.91 509.109 7404.74 488.247 7466.84 536.876C7528.94 585.504 7350.67 682.465 7488.31 724.709C7531.76 738.073 7516.76 964.959 7510.59 1017.89L7547.73 1036.75C7548.62 1032.52 7549.52 1028.29 7550.26 1023.91C7550.26 1022.87 7550.7 1021.83 7550.85 1020.64C7568.53 926.798 7577.52 810.608 7582.05 716.988C7582.05 716.023 7582.05 715.132 7582.05 714.241C7584.58 660.652 7570.16 607.629 7540.82 562.702C7511.49 517.774 7468.73 483.228 7418.63 463.969C7270.07 407.025 7045.22 361.886 6831.82 482.753C6793.09 504.658 6760.74 536.262 6737.95 574.456C6715.16 612.65 6702.71 656.117 6701.83 700.581C6702.57 723.373 6702.49 748.987 6702.94 776.234Z" fill="#173259"/>
<path d="M7331.71 1593.78C7372.22 1621.94 7414.39 1647.65 7457.98 1670.77C7486.8 1686.36 7518 1702.91 7550.54 1720.14C7600.9 1746.57 7654.53 1774.71 7707.34 1803.36C7785.93 1845.83 7863.33 1889.71 7927.51 1931.43C7991.69 1973.16 8042.65 2013.1 8067.83 2048.07C8104.15 2098.26 8127.7 2422.92 8142.85 2849.89C8143.45 2864.74 8143.89 2880.03 8144.49 2895.32C8144.49 2897.18 8144.49 2898.96 8144.49 2900.89C8145.08 2916.48 8145.6 2932.37 8146.05 2948.33C8147.53 2996.37 8148.94 3045.52 8150.35 3095.48C8150.35 3106.03 8150.95 3116.57 8151.1 3127.26C8151.1 3135.2 8151.62 3143.15 8151.69 3151.09C8153.25 3212.27 8154.59 3274.71 8155.85 3337.74C8156.74 3380.95 8157.63 3424.45 8158.3 3468.11C8171.52 4230.06 8168.33 5056.38 8165.28 5281.11C8002.53 5322.63 7837.43 5354.34 7670.87 5376.07C7627.94 5381.66 7585 5386.61 7542.07 5390.92L7499.13 5394.7C7421.88 5401.34 7344.65 5405.77 7267.45 5407.99C7139.79 5411.56 7012.12 5409.08 6884.46 5400.57C6796.76 5394.63 6709.01 5385.82 6621.21 5374.14C6460.45 5352.55 6301.04 5321.92 6143.73 5282.38C6140.84 5014.36 6147.08 3868.65 6179.16 3011.66C6179.76 2997.93 6180.28 2984.34 6180.72 2970.83C6199.89 2477.19 6227.82 2087.94 6267.86 2033C6316.14 1966.92 6446.95 1885.33 6585.33 1807.6C6641.64 1775.89 6699.2 1744.93 6752.98 1715.83C6842.12 1667.87 6920.41 1624.96 6965.72 1593.18C6965.72 1593.18 7053.67 1731.42 7152.47 1722.81C7242.49 1715.39 7312.62 1608.4 7324.57 1589.17L7331.71 1593.78Z" fill="#16EE12"/>
<path d="M7679.57 4747.61C7347.61 4746.13 7064.3 4595.12 6884.76 4468.75C6690.96 4332.07 6573.45 4193.54 6572.26 4192.13C6569.8 4188.86 6568.68 4184.77 6569.14 4180.71C6569.6 4176.64 6571.61 4172.91 6574.74 4170.28C6577.88 4167.65 6581.91 4166.32 6585.99 4166.57C6590.08 4166.83 6593.91 4168.64 6596.7 4171.64C6597.89 4172.97 6713.25 4308.84 6903.93 4443.14C7079.23 4566.68 7356.15 4714.2 7679.42 4715.69C7683.65 4715.69 7687.72 4717.37 7690.71 4720.36C7693.71 4723.36 7695.39 4727.42 7695.39 4731.65C7695.39 4735.88 7693.71 4739.94 7690.71 4742.94C7687.72 4745.93 7683.65 4747.61 7679.42 4747.61H7679.57Z" fill="#038D00"/>
<path d="M7333.63 4860.32C7045.57 4860.32 6758.33 4696.24 6745.26 4688.67C6741.59 4686.54 6738.92 4683.05 6737.84 4678.96C6736.75 4674.86 6737.33 4670.5 6739.46 4666.84C6741.59 4663.18 6745.09 4660.51 6749.18 4659.43C6753.28 4658.34 6757.64 4658.93 6761.3 4661.05C6764.64 4662.98 7102.99 4855.94 7402.34 4824.98C7404.43 4824.74 7406.54 4824.92 7408.55 4825.51C7410.57 4826.1 7412.45 4827.08 7414.08 4828.4C7415.71 4829.72 7417.06 4831.35 7418.06 4833.2C7419.05 4835.05 7419.67 4837.07 7419.87 4839.16C7420.09 4841.25 7419.89 4843.36 7419.29 4845.37C7418.69 4847.38 7417.7 4849.25 7416.37 4850.87C7415.05 4852.5 7413.42 4853.85 7411.57 4854.85C7409.72 4855.84 7407.7 4856.47 7405.61 4856.68C7381.7 4859.16 7357.67 4860.37 7333.63 4860.32Z" fill="#038D00"/>
<path d="M6899.04 2139.1C6895.01 2139.18 6891.09 2137.74 6888.08 2135.05C6885.07 2132.37 6883.18 2128.64 6882.81 2124.63C6882.43 2120.61 6883.59 2116.6 6886.05 2113.41C6888.51 2110.21 6892.09 2108.06 6896.07 2107.4C7300.83 2030.63 7422.8 1770.41 7423.98 1767.81C7425.73 1763.95 7428.93 1760.94 7432.9 1759.45C7436.86 1757.95 7441.26 1758.09 7445.12 1759.83C7448.98 1761.57 7451.99 1764.78 7453.49 1768.74C7454.98 1772.7 7454.85 1777.09 7453.1 1780.95C7447.98 1792.31 7322.96 2058.99 6902.09 2138.8C6901.08 2138.97 6900.06 2139.07 6899.04 2139.1Z" fill="#038D00"/>
<path d="M7499.22 2531.46H7898.26V2775.2C7898.28 2825.49 7878.32 2873.73 7842.78 2909.33C7807.23 2944.92 7759.01 2964.96 7708.69 2965.04H7689.38C7639.02 2965.04 7590.73 2945.04 7555.13 2909.46C7519.52 2873.87 7499.52 2825.6 7499.52 2775.27V2531.46H7499.22Z" fill="#038D00"/>
<path d="M5626.09 5506.6C5626.09 5505.79 5626.09 5504.97 5625.72 5504.08C5594.97 5322.71 5682.32 5158.55 5720.06 5163.75C5757.79 5168.95 5688.78 5361.83 5722.36 5431.03C5755.93 5500.22 5799.17 5365.54 5842.32 5283.73C5886.89 5198.72 5884.44 5013.19 5864.09 4880.89C5843.73 4748.59 6083.74 3944.46 6085 3711.42L6114.26 3612.67L6221.3 3251.04L6388.95 2684.64C6388.95 2684.64 6288.53 2255.96 6119.17 2292.79C6119.17 2292.79 6029.58 2591.39 5933.47 2928.16C5917.2 2985.32 5900.78 3043.6 5884.59 3101.73C5816.32 3345.84 5752.15 3586.91 5722.36 3729.9C5643.62 4107.5 5637.53 4892.39 5637.53 4892.39C5637.53 4892.39 5498.55 5180.75 5495.28 5309.12C5493.35 5382.47 5513.18 5447.8 5530.72 5506.38L5626.09 5506.6Z" fill="#FABDAC"/>
<path d="M5884.88 3101.96L6114.26 3612.89L6221.29 3251.26L5933.75 2928.38C5917.49 2985.47 5901.07 3043.82 5884.88 3101.96Z" fill="#F79E83"/>
<path d="M5873.51 2949.76C5974.09 3122.15 6076.45 3293.65 6178.06 3465.45C6211.64 3353.12 6246.4 3245.24 6279.01 3146.2C6279.01 3146.2 6279.01 3145.76 6279.01 3145.46C6292.08 3105.82 6304.79 3067.58 6316.97 3031.05C6317.13 3030.42 6317.36 3029.79 6317.64 3029.2C6321.87 3016.35 6325.96 3003.66 6330.19 2991.33C6378.84 2844.33 6416.58 2727.4 6427.35 2659.32C6456.39 2475.87 6388.35 2150.46 6287.4 2057.95L6275.96 2049.19C6269.43 2045.33 6266.9 2039.54 6259.62 2047.04C6225.16 2082.38 6142.04 2201.46 6098.95 2310.38L6082.02 2353.37C6020.22 2513.28 5944 2721.61 5873.51 2949.76Z" fill="#038D00"/>
<path d="M6162.97 3566.85C6196.17 3429.73 6237.92 3277.31 6279.29 3146.04V3145.3C6292.07 3104.69 6304.85 3066.16 6317.33 3030.82C6317.47 3030.18 6317.69 3029.55 6317.99 3028.96C6321.78 3017.83 6325.42 3006.69 6329.58 2996.52C6330.18 2994.77 6330.51 2992.95 6330.55 2991.1V2991.1C6330.55 2987.42 6329.25 2983.86 6326.88 2981.05C6324.5 2978.24 6321.21 2976.35 6317.59 2975.73C6313.96 2975.11 6310.23 2975.79 6307.05 2977.65C6303.88 2979.51 6301.47 2982.43 6300.24 2985.9C6257.83 3101.42 6207.76 3268.03 6164.83 3430.69C6164.04 3475.83 6163.42 3521.22 6162.97 3566.85Z" fill="#038D00"/>
<path d="M8015.16 2991.02C8015.21 2992.87 8015.53 2994.69 8016.12 2996.44C8019.99 3006.91 8023.55 3017.6 8027.71 3028.74C8028.02 3029.37 8028.25 3030.05 8028.38 3030.74C8040.93 3066.08 8053.64 3104.54 8066.41 3145.08C8066.38 3145.35 8066.38 3145.62 8066.41 3145.89C8097.98 3246.42 8130 3359.49 8158 3468.41C8157.26 3424.75 8156.44 3381.29 8155.55 3338.04C8119 3206.4 8079.49 3079.3 8045.17 2985.68C8043.94 2982.21 8041.53 2979.29 8038.35 2977.43C8035.18 2975.56 8031.45 2974.88 8027.82 2975.51C8024.2 2976.13 8020.91 2978.01 8018.53 2980.82C8016.16 2983.64 8014.86 2987.2 8014.86 2990.87L8015.16 2991.02Z" fill="#038D00"/>
<path d="M8771.28 3349.26C8682.59 3160.01 8073.56 2059.06 8073.56 2059.06C7958.73 2127.44 8153.12 3210.35 8153.12 3210.35L8394.75 3826.56C8407.78 3860.76 8428.08 3891.73 8454.25 3917.32C8480.42 3942.92 8511.84 3962.53 8546.33 3974.81C8580.83 3987.08 8617.58 3991.73 8654.04 3988.43C8690.51 3985.12 8725.82 3973.95 8757.54 3955.67L8764.52 3951.59C8997.39 3813.27 8771.28 3349.26 8771.28 3349.26Z" fill="#FABDAC"/>
<path d="M8073.55 2058.7L8636.23 2862.82C8636.23 2862.82 8412.57 3350.22 8155.71 3331.73C8155.71 3331.73 7839.12 2223.59 8073.55 2058.7Z" fill="#038D00"/>
<path d="M8785.4 2843.65L8778.34 2924.95L8766.31 3062L8764.01 3088.28L8753.91 3204.92L8742.69 3331.72L8742.17 3337.66L8729.54 3483.03L8718.33 3612.51L8704.29 3773.17H8257.49L8254.22 3736.42L8240.7 3580.14L8232.46 3485.92L8219.01 3331.72L8218.79 3329.12L8210.54 3235.21L8197.84 3088.28L8196.87 3077.66L8188.7 2984.19L8176.45 2843.65H8785.4Z" fill="#173259"/>
<path d="M8764 3088.29L8753.89 3204.93L8742.68 3331.74H8219L8218.78 3329.14L8210.53 3235.22L8197.83 3088.29H8764Z" fill="white"/>
<path d="M8816.67 2724.8H8145.18V2843.66H8816.67V2724.8Z" fill="#045388"/>
<path d="M8227.68 2623.91H8734.13C8742.6 2623.91 8750.72 2627.27 8756.71 2633.26C8762.7 2639.24 8766.07 2647.36 8766.07 2655.83V2724.88H8195.74V2655.83C8195.74 2647.36 8199.11 2639.24 8205.1 2633.26C8211.09 2627.27 8219.21 2623.91 8227.68 2623.91V2623.91Z" fill="#173259"/>
<path d="M8800.61 2928.75C8731.2 2935 8662.36 2946.37 8594.63 2962.75C8533.05 2977.15 8399.12 3057.85 8456.32 3087.48C8501.4 3110.94 8704.12 3054.29 8744.23 3072.63C8744.23 3072.63 8648.33 3092.23 8566.7 3104.85C8492.86 3116.21 8378.77 3159.27 8423.19 3182.8C8465.16 3205.08 8570.34 3195.94 8607.77 3196.91C8657.54 3198.25 8720.46 3197.36 8720.46 3197.36C8662.07 3207.85 8604.33 3221.68 8547.53 3238.78C8504.75 3251.7 8381.22 3264.17 8420.51 3319.93C8440.2 3347.92 8606.88 3327.73 8690.67 3335.15C8690.67 3335.15 8536.39 3361.28 8491.67 3403.23C8456.32 3436.34 8504.45 3440.87 8566.7 3445.33C8647.07 3451.04 8671.73 3445.33 8720.46 3445.33C8769.19 3445.33 8851.27 3410.73 8853.05 3360.76C8854.83 3310.8 8826.83 3289.79 8835.59 3258.38C8844.36 3226.98 8864.56 3178.94 8853.12 3151.4C8841.68 3123.86 8845.1 3100.69 8856.54 3064.76C8867.98 3028.82 8847.77 2943.3 8800.61 2928.75Z" fill="#FABDAC"/>
<path d="M7187.99 931.394C7187.99 902.669 7196.52 874.59 7212.49 850.707C7228.45 826.824 7251.15 808.211 7277.7 797.222C7304.26 786.233 7333.47 783.362 7361.66 788.971C7389.85 794.58 7415.74 808.418 7436.05 828.735C7456.37 849.052 7470.2 874.934 7475.8 903.109C7481.4 931.283 7478.51 960.484 7467.5 987.018C7456.49 1013.55 7437.86 1036.23 7413.95 1052.17C7390.05 1068.12 7361.95 1076.63 7333.21 1076.61C7294.7 1076.57 7257.77 1061.26 7230.55 1034.03C7203.32 1006.8 7188.01 969.889 7187.99 931.394V931.394ZM7210.28 931.394C7210.26 955.643 7217.45 979.352 7230.92 999.521C7244.39 1019.69 7263.54 1035.41 7285.95 1044.7C7308.36 1053.98 7333.03 1056.42 7356.82 1051.69C7380.62 1046.96 7402.48 1035.29 7419.63 1018.14C7436.79 1000.99 7448.47 979.147 7453.2 955.363C7457.93 931.579 7455.5 906.927 7446.2 884.527C7436.91 862.126 7421.18 842.983 7401 829.52C7380.82 816.057 7357.1 808.879 7332.84 808.893C7300.48 809.128 7269.52 822.134 7246.7 845.077C7223.88 868.021 7211.06 899.045 7211.02 931.394H7210.28Z" fill="white"/>
<path d="M6790.88 931.394C6790.88 902.672 6799.41 874.596 6815.37 850.715C6831.34 826.834 6854.03 808.221 6880.58 797.229C6907.13 786.238 6936.34 783.362 6964.52 788.966C6992.71 794.569 7018.6 808.4 7038.92 828.709C7059.24 849.018 7073.07 874.894 7078.68 903.063C7084.29 931.233 7081.41 960.431 7070.41 986.967C7059.41 1013.5 7040.79 1036.18 7016.9 1052.14C6993 1068.1 6964.91 1076.61 6936.18 1076.61C6897.66 1076.57 6860.72 1061.26 6833.48 1034.04C6806.24 1006.81 6790.92 969.896 6790.88 931.394ZM6813.17 931.394C6813.15 955.64 6820.33 979.346 6833.8 999.513C6847.27 1019.68 6866.42 1035.4 6888.82 1044.69C6911.23 1053.98 6935.89 1056.42 6959.69 1051.7C6983.48 1046.98 7005.34 1035.31 7022.5 1018.17C7039.66 1001.03 7051.34 979.188 7056.08 955.408C7060.82 931.629 7058.4 906.98 7049.12 884.578C7039.84 862.176 7024.12 843.028 7003.95 829.556C6983.78 816.084 6960.06 808.893 6935.81 808.893C6903.37 809.031 6872.31 821.991 6849.4 844.943C6826.49 867.895 6813.6 898.974 6813.54 931.394H6813.17Z" fill="white"/>
<path d="M7593.18 821.661C7593.18 818.655 7591.99 815.769 7589.88 813.629C7587.77 811.489 7584.89 810.267 7581.89 810.228C7503.07 809.56 7448.18 862.718 7445.95 865.316C7444.9 866.364 7444.06 867.61 7443.49 868.981C7442.92 870.352 7442.62 871.823 7442.62 873.308C7442.61 874.794 7442.9 876.266 7443.47 877.64C7444.04 879.014 7444.87 880.263 7445.92 881.316C7446.96 882.369 7448.21 883.205 7449.58 883.777C7450.95 884.348 7452.42 884.644 7453.91 884.648C7455.4 884.651 7456.87 884.362 7458.25 883.797C7459.62 883.231 7460.87 882.401 7461.92 881.353C7462.52 880.833 7512.06 832.798 7581.59 833.021C7583.1 833.04 7584.59 832.762 7585.99 832.2C7587.4 831.639 7588.67 830.807 7589.75 829.751C7590.82 828.695 7591.68 827.437 7592.27 826.049C7592.86 824.66 7593.17 823.169 7593.18 821.661V821.661Z" fill="white"/>
<path d="M6818.96 863.832C6815.7 861.754 6756.57 823.593 6690.16 811.12C6688.52 810.801 6686.83 810.85 6685.22 811.263C6683.6 811.676 6682.09 812.443 6680.81 813.508C6679.52 814.573 6678.48 815.911 6677.78 817.423C6677.07 818.936 6676.71 820.587 6676.72 822.256V822.256C6676.69 824.87 6677.58 827.41 6679.24 829.433C6680.9 831.455 6683.21 832.831 6685.78 833.318C6748.1 845.197 6805.82 882.319 6806.63 882.839C6807.88 883.663 6809.27 884.231 6810.74 884.51C6812.21 884.788 6813.71 884.771 6815.17 884.46C6816.63 884.149 6818.02 883.55 6819.24 882.698C6820.47 881.846 6821.51 880.757 6822.31 879.498C6823.12 878.251 6823.68 876.856 6823.96 875.392C6824.23 873.929 6824.21 872.426 6823.9 870.969C6823.59 869.513 6822.99 868.133 6822.15 866.908C6821.3 865.683 6820.22 864.638 6818.96 863.832Z" fill="white"/>
<path d="M7073.44 898.805C7073.44 898.434 7100.63 862.13 7135.99 862.13C7171.35 862.13 7195.41 898.36 7195.41 898.731L7214.35 886.407C7213.09 884.477 7183.23 839.486 7135.84 839.486C7088.45 839.486 7056.29 883.66 7054.95 885.59L7073.44 898.805Z" fill="white"/>
<path d="M3330.94 2490.64L3618.48 3535.61L3624.13 3554.69C3624.13 3559.44 3624.13 3564.34 3624.13 3569.54C3634.6 3822.85 3867.62 4607.45 3847.49 4738.79C3826.84 4872.87 3824.24 5060.63 3869.77 5146.67C3913.45 5229.53 3957.35 5366.14 3991.3 5295.83C4025.24 5225.52 3955.42 5030.41 3993.53 5025.07C4031.63 5019.72 4120.25 5185.95 4089.05 5369.55C4057.85 5553.15 4168.31 5602.38 4159.92 5511.8C4151.52 5421.22 4224.47 5310.83 4220.9 5172.36C4217.56 5042.44 4076.87 4750.52 4076.87 4750.52C4076.87 4750.52 4070.7 3956.12 3991 3573.4C3911.3 3190.68 3594.42 1990.62 3594.42 1990.62C3415.25 2180.01 3330.94 2490.64 3330.94 2490.64Z" fill="#FABDAC"/>
<path d="M3618.64 3536.2L3624.13 3554.69C3624.13 3559.22 3624.13 3563.97 3624.13 3569.02C3672.67 3551.55 3722.29 3537.29 3772.7 3526.33C3774.81 3525.93 3776.82 3525.13 3778.62 3523.96C3780.43 3522.79 3781.98 3521.27 3783.19 3519.5C3784.41 3517.73 3785.26 3515.73 3785.7 3513.63C3786.14 3511.53 3786.17 3509.36 3785.77 3507.25C3785.41 3505.12 3784.63 3503.08 3783.47 3501.26C3782.31 3499.44 3780.79 3497.87 3779.01 3496.65C3777.22 3495.43 3775.21 3494.58 3773.09 3494.16C3770.98 3493.73 3768.79 3493.74 3766.68 3494.18C3716.48 3505.01 3667.04 3519.05 3618.64 3536.2V3536.2Z" fill="#F79E83"/>
<path d="M3702.23 5502.29C3691.16 5431.24 3680.39 5359.82 3669.92 5289.07C3663.03 5241.6 3656.22 5194.58 3649.49 5148C3624.09 4970.49 3601.43 4802.63 3583.23 4663.35C3576.25 4610.49 3570.01 4561.63 3564.36 4518.05C3546.68 4379 3536.28 4292.65 3536.28 4292.65L2754.93 4322.35L1971.12 4292.65C1971.12 4292.65 1950.91 4463.41 1918.52 4711.23C1912.66 4756.37 1906.34 4803.96 1899.73 4853.56C1882.28 4983.63 1862.59 5127.22 1841.05 5274.22C1840.68 5276.37 1840.38 5278.52 1840.08 5280.68C1833.32 5326.48 1826.56 5372.59 1819.51 5418.77C1819.51 5419.36 1819.51 5419.95 1819.51 5420.62C1815.45 5447.8 1811.31 5475.02 1807.1 5502.29H3702.23Z" fill="#173259"/>
<path d="M2151.22 4527.41C2151.23 4541.98 2146.92 4556.23 2138.83 4568.35C2130.75 4580.47 2119.24 4589.92 2105.78 4595.51C2092.32 4601.09 2077.5 4602.56 2063.2 4599.73C2048.9 4596.89 2035.76 4589.89 2025.45 4579.59C2015.14 4569.29 2008.11 4556.17 2005.27 4541.88C2002.42 4527.59 2003.87 4512.78 2009.45 4499.32C2015.02 4485.86 2024.47 4474.35 2036.58 4466.25C2048.7 4458.16 2062.95 4453.84 2077.53 4453.84C2097.06 4453.84 2115.79 4461.59 2129.61 4475.38C2143.42 4489.18 2151.2 4507.89 2151.22 4527.41Z" fill="#071736"/>
<path d="M2333.96 4812.59C2333.97 4827.16 2329.66 4841.41 2321.57 4853.53C2313.48 4865.65 2301.97 4875.11 2288.51 4880.69C2275.04 4886.27 2260.22 4887.74 2245.92 4884.9C2231.62 4882.06 2218.48 4875.04 2208.17 4864.74C2197.86 4854.43 2190.84 4841.3 2188 4827.01C2185.16 4812.72 2186.62 4797.9 2192.21 4784.44C2197.8 4770.98 2207.25 4759.48 2219.38 4751.39C2231.51 4743.31 2245.77 4739 2260.35 4739.01C2279.86 4739.03 2298.58 4746.79 2312.38 4760.58C2326.18 4774.38 2333.94 4793.08 2333.96 4812.59V4812.59Z" fill="#071736"/>
<path d="M2693.54 4665.35C2693.55 4679.92 2689.24 4694.17 2681.16 4706.29C2673.07 4718.41 2661.56 4727.86 2648.1 4733.45C2634.64 4739.03 2619.82 4740.5 2605.52 4737.67C2591.22 4734.84 2578.09 4727.83 2567.77 4717.53C2557.46 4707.23 2550.43 4694.11 2547.59 4679.82C2544.74 4665.53 2546.19 4650.72 2551.77 4637.26C2557.34 4623.8 2566.79 4612.29 2578.91 4604.19C2591.02 4596.1 2605.27 4591.78 2619.85 4591.78C2639.38 4591.78 2658.11 4599.53 2671.93 4613.32C2685.75 4627.12 2693.52 4645.83 2693.54 4665.35Z" fill="#071736"/>
<path d="M2126.05 5115.49C2126.05 5130.06 2121.72 5144.3 2113.63 5156.41C2105.53 5168.52 2094.02 5177.96 2080.56 5183.53C2067.09 5189.11 2052.28 5190.57 2037.98 5187.72C2023.69 5184.88 2010.56 5177.87 2000.26 5167.57C1989.95 5157.27 1982.93 5144.15 1980.09 5129.86C1977.25 5115.57 1978.71 5100.76 1984.28 5087.31C1989.86 5073.85 1999.3 5062.35 2011.42 5054.26C2023.54 5046.16 2037.79 5041.84 2052.36 5041.84C2071.9 5041.84 2090.65 5049.6 2104.46 5063.41C2118.28 5077.23 2126.05 5095.96 2126.05 5115.49V5115.49Z" fill="#071736"/>
<path d="M2575.36 5084.01C2575.36 5098.58 2571.04 5112.82 2562.94 5124.93C2554.84 5137.04 2543.33 5146.48 2529.87 5152.06C2516.41 5157.63 2501.59 5159.09 2487.3 5156.25C2473 5153.4 2459.87 5146.39 2449.57 5136.09C2439.26 5125.79 2432.24 5112.67 2429.4 5098.38C2426.56 5084.09 2428.02 5069.29 2433.59 5055.83C2439.17 5042.37 2448.62 5030.87 2460.73 5022.78C2472.85 5014.68 2487.1 5010.36 2501.67 5010.36C2521.21 5010.36 2539.96 5018.12 2553.78 5031.94C2567.59 5045.75 2575.36 5064.48 2575.36 5084.01Z" fill="#071736"/>
<path d="M1966.8 4780.51C1966.81 4798.86 1959.95 4816.54 1947.59 4830.1C1935.22 4843.65 1918.23 4852.1 1899.95 4853.79C1906.56 4804.19 1912.88 4756.6 1918.74 4711.46C1932.85 4716.69 1945.01 4726.11 1953.61 4738.46C1962.2 4750.8 1966.8 4765.47 1966.8 4780.51V4780.51Z" fill="#071736"/>
<path d="M3306.14 5502.29C3302.89 5485.51 3293.91 5470.38 3280.72 5459.51C3267.53 5448.63 3250.96 5442.68 3233.86 5442.68C3216.76 5442.68 3200.2 5448.63 3187.01 5459.51C3173.82 5470.38 3164.83 5485.51 3161.59 5502.29H3306.14Z" fill="#071736"/>
<path d="M3199.11 5189.06C3239.77 5189.06 3272.73 5156.12 3272.73 5115.48C3272.73 5074.85 3239.77 5041.91 3199.11 5041.91C3158.46 5041.91 3125.5 5074.85 3125.5 5115.48C3125.5 5156.12 3158.46 5189.06 3199.11 5189.06Z" fill="#071736"/>
<path d="M3669.9 5289.07C3660.76 5292.91 3650.93 5294.88 3641.01 5294.86C3621.49 5294.86 3602.76 5287.11 3588.96 5273.31C3575.15 5259.51 3567.4 5240.8 3567.4 5221.29C3567.4 5201.77 3575.15 5183.06 3588.96 5169.26C3602.76 5155.46 3621.49 5147.71 3641.01 5147.71C3643.84 5147.7 3646.67 5147.87 3649.48 5148.23C3656.16 5194.66 3662.97 5241.6 3669.9 5289.07Z" fill="#071736"/>
<path d="M1883.24 5347.94C1883.24 5365.79 1876.75 5383.03 1864.96 5396.45C1853.18 5409.87 1836.92 5418.54 1819.21 5420.85C1819.21 5420.18 1819.21 5419.58 1819.21 5418.99C1826.63 5372.88 1833.02 5326.71 1839.78 5280.9C1852.7 5286.72 1863.67 5296.14 1871.38 5308.03C1879.09 5319.92 1883.2 5333.77 1883.24 5347.94Z" fill="#071736"/>
<path d="M2371.68 5421.81C2371.7 5436.39 2367.39 5450.64 2359.3 5462.76C2351.21 5474.88 2339.7 5484.33 2326.23 5489.92C2312.76 5495.5 2297.94 5496.97 2283.64 5494.13C2269.34 5491.29 2256.2 5484.27 2245.89 5473.97C2235.58 5463.66 2228.56 5450.53 2225.72 5436.24C2222.88 5421.94 2224.35 5407.13 2229.93 5393.67C2235.52 5380.21 2244.98 5368.71 2257.11 5360.62C2269.23 5352.53 2283.49 5348.22 2298.07 5348.24C2317.59 5348.26 2336.3 5356.02 2350.1 5369.81C2363.9 5383.6 2371.66 5402.31 2371.68 5421.81V5421.81Z" fill="#071736"/>
<path d="M2767.15 5348.24C2767.15 5362.81 2762.83 5377.05 2754.73 5389.16C2746.63 5401.28 2735.12 5410.72 2721.65 5416.29C2708.18 5421.86 2693.36 5423.32 2679.07 5420.47C2664.77 5417.62 2651.64 5410.6 2641.34 5400.29C2631.04 5389.98 2624.02 5376.85 2621.19 5362.56C2618.35 5348.27 2619.82 5333.46 2625.41 5320C2631 5306.55 2640.46 5295.05 2652.58 5286.97C2664.71 5278.88 2678.97 5274.57 2693.54 5274.59C2703.22 5274.59 2712.79 5276.49 2721.73 5280.2C2730.67 5283.9 2738.78 5289.33 2745.62 5296.16C2752.46 5303 2757.88 5311.12 2761.57 5320.06C2765.27 5328.99 2767.16 5338.57 2767.15 5348.24Z" fill="#071736"/>
<path d="M2945.21 4959.81C2945.2 4974.37 2940.86 4988.6 2932.76 5000.7C2924.65 5012.8 2913.14 5022.23 2899.67 5027.8C2886.21 5033.36 2871.39 5034.81 2857.1 5031.96C2842.81 5029.11 2829.69 5022.09 2819.39 5011.78C2809.1 5001.48 2802.08 4988.36 2799.25 4974.07C2796.41 4959.79 2797.87 4944.98 2803.45 4931.53C2809.03 4918.08 2818.48 4906.58 2830.59 4898.49C2842.71 4890.4 2856.95 4886.08 2871.52 4886.08C2881.21 4886.08 2890.79 4887.99 2899.74 4891.7C2908.68 4895.4 2916.81 4900.84 2923.65 4907.68C2930.5 4914.53 2935.92 4922.66 2939.62 4931.6C2943.32 4940.54 2945.22 4950.13 2945.21 4959.81V4959.81Z" fill="#071736"/>
<path d="M3583.22 4663.36C3578.03 4664.55 3572.72 4665.15 3567.4 4665.14C3548.18 4665.07 3529.75 4657.5 3516.05 4644.04C3502.35 4630.57 3494.45 4612.29 3494.05 4593.09C3493.66 4573.89 3500.79 4555.29 3513.92 4541.27C3527.06 4527.25 3545.16 4518.92 3564.35 4518.06C3570 4561.87 3576.24 4610.72 3583.22 4663.36Z" fill="#071736"/>
<path d="M3199.09 4665.35C3199.11 4679.92 3194.8 4694.17 3186.71 4706.29C3178.62 4718.41 3167.12 4727.86 3153.66 4733.45C3140.2 4739.03 3125.38 4740.5 3111.08 4737.67C3096.78 4734.84 3083.64 4727.83 3073.33 4717.53C3063.02 4707.23 3055.99 4694.11 3053.14 4679.82C3050.3 4665.53 3051.75 4650.72 3057.33 4637.26C3062.9 4623.8 3072.34 4612.29 3084.46 4604.19C3096.58 4596.1 3110.83 4591.78 3125.41 4591.78C3144.94 4591.78 3163.67 4599.53 3177.49 4613.32C3191.3 4627.12 3199.08 4645.83 3199.09 4665.35V4665.35Z" fill="#071736"/>
<path d="M3468.81 4927.73C3468.81 4942.29 3464.49 4956.54 3456.39 4968.65C3448.29 4980.76 3436.78 4990.2 3423.31 4995.78C3409.84 5001.35 3395.02 5002.8 3380.72 4999.95C3366.43 4997.11 3353.3 4990.08 3343 4979.78C3332.69 4969.47 3325.68 4956.34 3322.85 4942.05C3320.01 4927.76 3321.48 4912.95 3327.07 4899.49C3332.66 4886.03 3342.12 4874.54 3354.24 4866.45C3366.37 4858.37 3380.62 4854.06 3395.2 4854.08C3404.87 4854.08 3414.45 4855.98 3423.39 4859.68C3432.32 4863.39 3440.44 4868.81 3447.28 4875.65C3454.12 4882.49 3459.54 4890.61 3463.23 4899.55C3466.93 4908.48 3468.82 4918.06 3468.81 4927.73Z" fill="#071736"/>
<path d="M3571.25 4312.19C3158.99 4581.17 2402.15 4560.09 1926.45 4312.19C1971.91 4029.32 2031.71 3746.09 2018.86 3369.31C2017.42 3328.03 2015.67 3287.07 2013.59 3246.44C2011.8 3211 2009.77 3175.93 2007.49 3141.23C1966.42 2514.85 1859.45 2002.8 1912.04 1936.57C1934.92 1907.62 1973.18 1876.36 2020.42 1844.36C2038.92 1831.74 2058.75 1818.97 2079.84 1806.2C2129.24 1776.13 2183.84 1745.77 2239.18 1716.22C2369.91 1646.5 2502.65 1581.77 2569.13 1537.52C2635.09 1566.25 2687.98 1582.06 2744.29 1581.69C2745.92 1581.8 2747.56 1581.8 2749.19 1581.69C2750.75 1581.8 2752.31 1581.8 2753.87 1581.69C2810.47 1581.69 2863.06 1566.25 2929.1 1537.52C2990.82 1578.57 3107.37 1635.81 3225.62 1698.18C3312.76 1744.06 3401.15 1792.76 3469.93 1840.06C3515.02 1870.94 3551.64 1901.23 3573.93 1929.67C3600 1962.48 3588.78 2106.29 3566.5 2319.44C3544.21 2529.1 3511.46 2805.95 3491.47 3110.35C3485.98 3194.84 3481.45 3281.11 3478.4 3369.31C3466 3746.09 3525.72 4029.32 3571.25 4312.19Z" fill="#16EE12"/>
<path d="M3281.57 4017.44C2949.61 4015.96 2666.23 3864.95 2486.77 3738.59C2293.64 3601.68 2175.9 3463.37 2174.79 3461.96C2172.32 3458.69 2171.2 3454.61 2171.66 3450.54C2172.12 3446.47 2174.13 3442.74 2177.27 3440.11C2180.4 3437.48 2184.43 3436.15 2188.52 3436.41C2192.6 3436.66 2196.44 3438.47 2199.23 3441.47C2200.34 3442.8 2315.7 3578.67 2506.38 3713.05C2681.75 3836.51 2958.6 3984.03 3281.87 3985.52C3286.1 3985.52 3290.17 3987.2 3293.16 3990.19C3296.16 3993.19 3297.84 3997.25 3297.84 4001.48C3297.84 4005.71 3296.16 4009.77 3293.16 4012.77C3290.17 4015.76 3286.1 4017.44 3281.87 4017.44H3281.57Z" fill="#038D00"/>
<path d="M2935.84 4130.14C2647.78 4130.14 2360.54 3966.07 2347.54 3958.57C2343.87 3956.45 2341.18 3952.96 2340.08 3948.87C2338.98 3944.78 2339.55 3940.41 2341.67 3936.74C2343.79 3933.07 2347.28 3930.39 2351.38 3929.29C2355.47 3928.19 2359.84 3928.76 2363.51 3930.88C2366.85 3932.81 2705.2 4125.76 3004.55 4094.8C3006.64 4094.56 3008.76 4094.73 3010.78 4095.31C3012.79 4095.9 3014.68 4096.88 3016.31 4098.2C3017.94 4099.52 3019.3 4101.16 3020.29 4103.01C3021.28 4104.86 3021.89 4106.89 3022.08 4108.98C3022.3 4111.07 3022.1 4113.18 3021.5 4115.19C3020.9 4117.2 3019.91 4119.07 3018.59 4120.7C3017.26 4122.33 3015.63 4123.68 3013.78 4124.67C3011.94 4125.67 3009.91 4126.29 3007.82 4126.51C2983.91 4128.98 2959.88 4130.2 2935.84 4130.14V4130.14Z" fill="#038D00"/>
<path d="M2680.86 2344.68C2676.9 2344.66 2673.09 2343.17 2670.17 2340.49C2667.25 2337.82 2665.43 2334.16 2665.06 2330.21C2664.69 2326.27 2665.79 2322.33 2668.17 2319.16C2670.54 2315.99 2674 2313.82 2677.89 2313.06C3082.57 2236.29 3204.62 1976.07 3205.8 1973.4C3206.61 1971.4 3207.82 1969.59 3209.34 1968.07C3210.87 1966.55 3212.69 1965.36 3214.69 1964.56C3216.69 1963.76 3218.84 1963.38 3220.99 1963.43C3223.14 1963.48 3225.26 1963.97 3227.22 1964.86C3229.19 1965.75 3230.95 1967.03 3232.4 1968.62C3233.85 1970.21 3234.97 1972.08 3235.68 1974.11C3236.39 1976.14 3236.69 1978.3 3236.54 1980.45C3236.4 1982.59 3235.82 1984.69 3234.85 1986.61C3229.72 1997.9 3104.71 2264.58 2683.83 2344.39C2682.86 2344.6 2681.86 2344.7 2680.86 2344.68V2344.68Z" fill="#038D00"/>
<path d="M3225.26 1698.47C3144.96 1881.62 2956.21 2130.04 2699.43 2085.72C2450.73 2042.73 2324.01 1852.52 2238.89 1716.51C2369.62 1646.72 2502.36 1582.05 2568.84 1537.81C2634.8 1566.54 2687.69 1582.35 2743.99 1581.98C2745.48 1581.98 2747.19 1581.98 2748.82 1581.98C2750.46 1581.98 2752.09 1581.98 2753.65 1581.98C2810.18 1581.98 2862.77 1566.54 2928.81 1537.81C2990.53 1578.79 3106.71 1636.03 3225.26 1698.47Z" fill="#FABDAC"/>
<path d="M3164.25 264.547C3164.25 264.547 3358.57 565.155 3337.25 878.682C3315.93 1192.21 3365.93 1553.7 3085.37 1537.81C2804.81 1521.92 2304.53 1650.21 2145.49 1406.18C1986.46 1162.14 3164.25 264.547 3164.25 264.547Z" fill="#173259"/>
<path d="M2340.64 815.575C2340.64 815.575 2263.17 712.378 2205.6 797.683C2148.03 882.988 2229.44 1135.04 2370.43 1073.49L2340.64 815.575Z" fill="#F79E83"/>
<path d="M2339.6 995.76C2337 995.758 2334.48 994.908 2332.42 993.339C2330.35 991.771 2328.86 989.57 2328.16 987.073C2306.32 909.267 2225.65 877.713 2224.84 877.416C2221.88 876.294 2219.49 874.045 2218.2 871.162C2216.9 868.28 2216.8 865.002 2217.93 862.048C2219.05 859.095 2221.3 856.708 2224.19 855.413C2227.07 854.118 2230.35 854.021 2233.3 855.144C2237.09 856.554 2325.93 891.077 2351.11 980.614C2351.56 982.13 2351.71 983.721 2351.54 985.293C2351.37 986.866 2350.88 988.388 2350.11 989.772C2349.35 991.155 2348.31 992.371 2347.06 993.348C2345.82 994.325 2344.39 995.044 2342.87 995.463C2341.8 995.706 2340.7 995.806 2339.6 995.76V995.76Z" fill="#F37873"/>
<path d="M2258.2 956.415C2256.06 956.411 2253.97 955.832 2252.13 954.738C2250.3 953.645 2248.79 952.077 2247.77 950.201C2246.75 948.324 2246.26 946.207 2246.34 944.074C2246.43 941.94 2247.08 939.869 2248.24 938.077C2259.62 922.317 2275.01 909.885 2292.81 902.069C2294.24 901.431 2295.78 901.079 2297.35 901.036C2298.91 900.993 2300.47 901.258 2301.93 901.816C2303.4 902.375 2304.73 903.215 2305.87 904.291C2307.01 905.366 2307.92 906.655 2308.56 908.083C2309.2 909.511 2309.55 911.051 2309.6 912.615C2309.64 914.179 2309.37 915.736 2308.81 917.198C2308.26 918.66 2307.41 919.997 2306.34 921.133C2305.26 922.27 2303.97 923.184 2302.54 923.822C2288.92 929.786 2277.05 939.141 2268.08 950.995C2267.01 952.645 2265.55 954.004 2263.82 954.95C2262.1 955.896 2260.17 956.399 2258.2 956.415V956.415Z" fill="#F37873"/>
<path d="M3138.49 815.575C3138.49 815.575 3215.96 712.378 3273.53 797.683C3331.1 882.988 3249.69 1135.04 3108.78 1073.49L3138.49 815.575Z" fill="#F79E83"/>
<path d="M3139.53 995.759C3142.13 995.757 3144.65 994.907 3146.71 993.339C3148.78 991.771 3150.27 989.57 3150.97 987.073C3172.81 909.266 3253.48 877.713 3254.3 877.416C3255.76 876.861 3257.1 876.022 3258.24 874.949C3259.38 873.876 3260.29 872.589 3260.93 871.162C3261.58 869.735 3261.93 868.196 3261.98 866.632C3262.02 865.068 3261.76 863.511 3261.2 862.048C3260.65 860.586 3259.81 859.247 3258.74 858.108C3257.66 856.97 3256.37 856.054 3254.95 855.413C3253.52 854.772 3251.98 854.418 3250.41 854.372C3248.85 854.326 3247.29 854.588 3245.83 855.144C3242.11 856.554 3153.2 891.077 3128.02 980.614C3127.57 982.13 3127.42 983.721 3127.59 985.293C3127.77 986.866 3128.25 988.388 3129.02 989.771C3129.79 991.154 3130.82 992.37 3132.07 993.347C3133.31 994.325 3134.74 995.044 3136.26 995.462C3137.34 995.701 3138.44 995.801 3139.53 995.759V995.759Z" fill="#F37873"/>
<path d="M3220.95 956.414C3223.22 956.429 3225.44 955.784 3227.34 954.558C3228.66 953.714 3229.8 952.617 3230.7 951.33C3231.59 950.043 3232.22 948.591 3232.56 947.059C3232.89 945.527 3232.91 943.945 3232.63 942.403C3232.34 940.861 3231.76 939.391 3230.9 938.077C3219.52 922.32 3204.14 909.888 3186.34 902.069C3183.45 900.779 3180.17 900.688 3177.22 901.816C3174.26 902.944 3171.88 905.198 3170.59 908.083C3169.3 910.967 3169.21 914.246 3170.34 917.198C3171.46 920.149 3173.72 922.532 3176.61 923.822C3190.2 929.802 3202.04 939.155 3211 950.995C3212.07 952.655 3213.55 954.02 3215.29 954.967C3217.02 955.913 3218.97 956.411 3220.95 956.414V956.414Z" fill="#F37873"/>
<path d="M2930.13 1287.24V1537.74C2930.13 1537.74 2855.4 1665.43 2754.16 1674.12C2652.91 1682.81 2563.4 1564.24 2563.4 1564.24V1304.84L2930.13 1287.24Z" fill="#FABDAC"/>
<path d="M2930.15 1287.24V1398.6C2862.33 1473.81 2741.85 1500.47 2563.5 1474.18V1304.84L2930.15 1287.24Z" fill="#F79E83"/>
<path d="M3194.5 643.624C3189.89 741.03 3180.53 862.788 3161.96 960.194C3157.36 984.472 3152.08 1007.34 3146.29 1027.83C3093.47 1212.47 2961.55 1529.12 2592 1397.26C2428.59 1338.98 2353.19 1157.31 2319.47 972.593C2296.66 847.123 2293.17 720.168 2294.81 629.666C2295.69 584.21 2308.4 539.767 2331.69 500.713C2354.97 461.658 2388.04 429.339 2427.62 406.938C2645.78 283.324 2875.91 329.428 3027.36 387.635C3078.63 407.303 3122.38 442.632 3152.38 488.593C3182.39 534.554 3197.13 588.805 3194.5 643.624V643.624Z" fill="#FABDAC"/>
<path d="M2576.87 830.273C2576.87 857 2563.05 878.679 2546.04 878.679C2529.03 878.679 2515.21 857 2515.21 830.273C2515.21 803.546 2529.03 781.793 2546.04 781.793C2563.05 781.793 2576.87 803.471 2576.87 830.273Z" fill="#173259"/>
<path d="M2957.31 830.273C2957.31 857 2943.5 878.679 2926.49 878.679C2909.48 878.679 2895.66 857 2895.66 830.273C2895.66 803.546 2909.48 781.793 2926.49 781.793C2943.5 781.793 2957.31 803.471 2957.31 830.273Z" fill="#173259"/>
<path d="M2485.03 686.018C2527.92 673.786 2572.22 667.172 2616.81 666.344C2620.17 666.305 2623.5 667.006 2626.55 668.398C2629.61 669.789 2632.33 671.837 2634.5 674.396C2636.68 676.954 2638.27 679.961 2639.15 683.201C2640.03 686.442 2640.19 689.837 2639.61 693.146V693.517C2638.61 698.953 2635.68 703.844 2631.35 707.283C2627.02 710.723 2621.59 712.479 2616.06 712.226C2578.92 710.444 2481.54 715.716 2435.56 734.499C2435.61 729.909 2436.56 725.373 2438.37 721.155C2440.18 716.936 2442.81 713.119 2446.11 709.925C2456.46 698.31 2469.99 689.996 2485.03 686.018Z" fill="#173259"/>
<path d="M2982.81 687.056C2939.84 674.73 2895.44 668.09 2850.74 667.307C2847.38 667.268 2844.06 667.969 2841 669.361C2837.94 670.752 2835.22 672.8 2833.05 675.359C2830.87 677.917 2829.28 680.924 2828.4 684.164C2827.52 687.405 2827.36 690.8 2827.94 694.109V694.48C2828.92 699.924 2831.86 704.823 2836.19 708.265C2840.52 711.708 2845.96 713.458 2851.49 713.189C2888.63 711.482 2986.01 716.679 3031.99 735.462C3031.95 730.889 3031 726.369 3029.2 722.164C3027.41 717.959 3024.79 714.151 3021.51 710.962C3011.22 699.388 2997.77 691.077 2982.81 687.056Z" fill="#173259"/>
<path d="M2743.7 1051.22C2734.68 1051.55 2725.74 1049.42 2717.85 1045.06C2712.81 1042 2708.59 1037.76 2705.58 1032.7C2702.56 1027.64 2700.83 1021.91 2700.54 1016.03C2695.94 972.226 2707.15 835.099 2707.97 829.309C2708.1 827.753 2708.53 826.239 2709.24 824.851C2709.95 823.462 2710.93 822.228 2712.12 821.218C2713.31 820.208 2714.69 819.442 2716.17 818.964C2717.66 818.486 2719.23 818.305 2720.78 818.432C2722.34 818.559 2723.85 818.991 2725.24 819.703C2726.63 820.415 2727.87 821.394 2728.88 822.583C2729.89 823.772 2730.65 825.149 2731.13 826.634C2731.61 828.119 2731.79 829.684 2731.66 831.239C2731.66 832.65 2720.22 972.3 2724.24 1013.58C2724.21 1015.77 2724.73 1017.93 2725.76 1019.86C2726.78 1021.79 2728.28 1023.44 2730.1 1024.64C2741.32 1031.32 2767.24 1024.64 2777.94 1020.11C2780.9 1018.92 2784.2 1018.95 2787.14 1020.2C2790.07 1021.44 2792.38 1023.8 2793.58 1026.76C2794.77 1029.71 2794.74 1033.02 2793.49 1035.95C2792.24 1038.88 2789.88 1041.19 2786.93 1042.38C2773.14 1047.82 2758.51 1050.81 2743.7 1051.22V1051.22Z" fill="#F79E83"/>
<path d="M2592.46 1126.43C2601.45 1171.71 2631.38 1255.01 2732.18 1255.01C2832.98 1255.01 2861.65 1178.92 2871.38 1126.43H2592.46Z" fill="white"/>
<path d="M2730.78 1324.5C2711.09 1323.77 2691.9 1318.15 2674.92 1308.17C2673.59 1307.35 2672.43 1306.27 2671.52 1305.01C2670.6 1303.74 2669.94 1302.31 2669.58 1300.79C2669.22 1299.27 2669.16 1297.69 2669.41 1296.15C2669.65 1294.61 2670.2 1293.13 2671.02 1291.8C2671.84 1290.47 2672.91 1289.31 2674.18 1288.39C2675.45 1287.48 2676.88 1286.82 2678.4 1286.46C2679.92 1286.09 2681.5 1286.04 2683.05 1286.28C2684.59 1286.53 2686.07 1287.08 2687.4 1287.9C2700.63 1295.56 2715.51 1299.93 2730.78 1300.67C2746.84 1300.07 2762.52 1295.67 2776.54 1287.82C2779.23 1286.44 2782.35 1286.14 2785.26 1286.97C2788.17 1287.79 2790.66 1289.69 2792.23 1292.29C2793.79 1294.88 2794.32 1297.96 2793.69 1300.92C2793.07 1303.89 2791.35 1306.5 2788.87 1308.24C2771.13 1318.33 2751.18 1323.91 2730.78 1324.5V1324.5Z" fill="#F79E83"/>
<path d="M3242.49 624.553C3238.63 635.393 3227.64 642.297 3213.82 646.826C3214.11 676.26 3212.67 705.686 3209.51 734.952C3194.66 907.047 3151.35 937.263 3141.54 894.722C3135.08 866.436 3135.45 704.364 3138.57 651.578C3117.42 650.139 3096.36 647.487 3075.51 643.634L3035.55 476.068L3021.58 640.887C2961.71 661.749 2821.91 628.414 2821.91 628.414L2775.04 463.744L2746.07 622.177C2656.27 665.906 2543.96 637.026 2543.96 637.026L2518.18 466.268L2458.76 637.026C2458.76 637.026 2267.11 705.775 2265.03 637.026C2263.69 597.083 2293.04 484.457 2317.77 397.222C2330.53 350.634 2352.51 307.08 2382.42 269.14C2412.33 231.2 2449.55 199.647 2491.88 176.35C2729.58 48.8014 2981.02 116.956 3067.26 168.109C3249.99 276.949 3242.49 624.553 3242.49 624.553Z" fill="#173259"/>
<path d="M2375.91 277.244C2375.91 277.244 2212.5 464.855 2160.5 799.838C2108.5 1134.82 2036.9 1382.35 2238.87 1493.19C2457.48 1612.87 2499.59 1409 2496.4 1342.26C2493.2 1275.51 2246.29 1051.45 2370.12 537.762C2410.46 371.681 2375.91 277.244 2375.91 277.244Z" fill="#173259"/>
<path d="M3197.32 1079.14C3197.32 1084.66 3195.68 1090.06 3192.61 1094.65C3189.53 1099.24 3185.17 1102.82 3180.06 1104.93C3174.95 1107.04 3169.33 1107.59 3163.91 1106.51C3158.49 1105.43 3153.52 1102.76 3149.61 1098.85C3145.71 1094.94 3143.06 1089.96 3141.99 1084.54C3140.92 1079.12 3141.48 1073.5 3143.61 1068.4C3145.73 1063.3 3149.32 1058.95 3153.93 1055.89C3158.53 1052.83 3163.94 1051.2 3169.46 1051.22C3173.13 1051.22 3176.76 1051.94 3180.14 1053.35C3183.52 1054.75 3186.6 1056.81 3189.19 1059.4C3191.77 1061.99 3193.82 1065.07 3195.22 1068.46C3196.61 1071.84 3197.33 1075.47 3197.32 1079.14V1079.14Z" fill="white"/>
<path d="M2007.43 3141.38C1966.35 2514.99 1859.39 2002.94 1911.98 1936.72C1934.86 1907.76 1973.11 1876.5 2020.36 1844.51C2068.42 2069.98 2189.64 2747.89 2007.43 3141.38Z" fill="#FABDAC"/>
<path d="M3566.87 2319.73C3544.59 2529.39 3511.83 2806.25 3491.85 3110.64C3330.21 2718.12 3421.65 2068.12 3469.56 1840.35C3514.65 1871.23 3551.27 1901.52 3573.56 1929.96C3600.07 1962.77 3589.15 2106.58 3566.87 2319.73Z" fill="#FABDAC"/>
<path d="M2096.79 2604L1914.8 3187.69L1715.88 3742.73C1708.4 3770.05 1695.07 3795.42 1676.81 3817.08C1658.55 3838.73 1635.8 3856.17 1610.13 3868.17C1584.47 3880.18 1556.5 3886.46 1528.16 3886.6C1499.82 3886.73 1471.8 3880.71 1446.02 3868.94L1440.22 3866.35C1250.88 3776.88 1355.25 3405.67 1355.25 3405.67L1391.05 3402.85C1405.91 3362.16 1444.9 3258.45 1495.04 3128.15C1501.13 3112.11 1507.45 3095.63 1513.84 3079C1524.53 3051.24 1535.5 3022.7 1546.74 2993.4L1595.92 2866.22C1718.7 2548.02 1820.32 2202.72 1820.32 2202.72L1905.07 1951.26L2096.79 2604Z" fill="#FABDAC"/>
<path d="M1586.09 3524.16H1583.79C1580.22 3524.2 1576.75 3522.96 1574.02 3520.65C1571.3 3518.35 1569.49 3515.14 1568.94 3511.61C1541.23 3335.66 1513.37 3205.66 1494.66 3127.7C1500.75 3111.74 1507.13 3095.26 1513.45 3078.63C1530.76 3147.3 1564.63 3293.93 1598.28 3506.93C1598.62 3508.87 1598.57 3510.85 1598.14 3512.76C1597.71 3514.67 1596.91 3516.48 1595.78 3518.08C1594.64 3519.69 1593.21 3521.05 1591.54 3522.09C1589.88 3523.13 1588.03 3523.84 1586.09 3524.16Z" fill="#F79E83"/>
<path d="M1559 3532.71C1559 3532.71 1532.92 3109.53 1442.67 3019.91C1352.42 2930.3 1269.97 2895.71 1185.29 2898.75C1100.61 2901.79 1020.98 2912.34 1026.18 2947.16C1026.18 2947.16 831.714 2917.46 744.879 2968.17C658.045 3018.87 1002.11 3062.6 1104.25 3065.28C1206.39 3067.95 1260.24 3124.67 1264.4 3185.77C1268.56 3246.87 1327.46 3649.64 1327.46 3649.64L1559 3532.71Z" fill="#FABDAC"/>
<path d="M1662.22 2974.48L373.157 2983.09C349.916 2983.31 327.538 2974.3 310.937 2958.04C294.336 2941.78 284.869 2919.61 284.614 2896.38V2895.56C284.536 2884.05 286.728 2872.63 291.064 2861.96C295.4 2851.29 301.797 2841.58 309.888 2833.39C317.979 2825.19 327.606 2818.66 338.219 2814.19C348.833 2809.71 360.225 2807.36 371.745 2807.29L1660.81 2798.67C1684.09 2798.52 1706.47 2807.6 1723.05 2823.93C1739.62 2840.26 1749.03 2862.5 1749.21 2885.76V2886.58C1749.25 2909.74 1740.13 2931.97 1723.83 2948.44C1707.54 2964.91 1685.39 2974.27 1662.22 2974.48V2974.48Z" fill="#071736"/>
<path d="M285.52 2983.68L3.25314 1955.13C-0.448902 1941.64 -0.999586 1927.49 1.64366 1913.77C4.28691 1900.04 10.0532 1887.1 18.4969 1875.96C26.9406 1864.81 37.8356 1855.76 50.3394 1849.49C62.8431 1843.23 76.6208 1839.92 90.6074 1839.83L696.367 1835.74C716.243 1835.61 735.62 1841.96 751.559 1853.84C767.497 1865.71 779.128 1882.45 784.686 1901.52L1095.03 2978.04L285.52 2983.68Z" fill="#173259"/>
<path d="M784.702 1901.53L1092.52 2969.43L1161.75 2968.99L853.932 1901.53C848.426 1882.42 836.824 1865.64 820.893 1853.74C804.962 1841.84 785.576 1835.47 765.687 1835.6L696.457 1836.04C716.286 1835.9 735.622 1842.21 751.544 1854.02C767.465 1865.84 779.104 1882.51 784.702 1901.53V1901.53Z" fill="#071736"/>
<path d="M632.628 2454.93C648.821 2522.79 606.853 2578.17 538.812 2578.62C470.77 2579.07 402.58 2524.42 386.387 2456.56C370.194 2388.71 412.237 2333.32 480.204 2332.88C548.171 2332.43 616.435 2387.07 632.628 2454.93Z" fill="#3D74A9"/>
</svg>