<svg width="66" height="66" viewBox="0 0 66 66" fill="none" xmlns="http://www.w3.org/2000/svg">
<path d="M56.925 47.025C54.175 40.425 48.95 35.475 42.625 33C46.2 30.25 48.4 25.85 48.4 21.175C48.4 12.375 41.525 5.5 33 5.5C24.475 5.5 17.6 12.375 17.6 20.9C17.6 25.575 19.8 29.975 23.375 32.725C17.05 35.2 11.825 40.15 9.07504 46.75C7.97504 49.5 8.25004 52.8 9.90004 55.275C11.55 58.025 14.575 59.4 17.875 59.4H48.4C51.7 59.4 54.45 57.75 56.375 55.275C58.025 52.8 58.3 49.775 56.925 47.025Z" fill="#263238"/>
</svg>
